<svg xmlns="http://www.w3.org/2000/svg" width="338" height="270" viewBox="0 0 338 270"><defs><clipPath id="inner"><ellipse cx="169.0" cy="135.0" rx="139.0" ry="105.0"/></clipPath></defs><ellipse cx="169.0" cy="135.0" rx="168.0" ry="134.0" fill="#2f1306"/><ellipse cx="169.0" cy="135.0" rx="165.0" ry="131.0" fill="#e39c21"/><ellipse cx="169.0" cy="135.0" rx="160.0" ry="126.0" fill="#2f1306"/><ellipse cx="169.0" cy="135.0" rx="157.0" ry="123.0" fill="#a73c1e"/><ellipse cx="169.0" cy="135.0" rx="145.0" ry="111.0" fill="#2f1306"/><ellipse cx="169.0" cy="135.0" rx="141.0" ry="107.0" fill="#f5dfb7"/><g clip-path="url(#inner)"><g transform="translate(-555,-814)"><path fill="#2f1306" d="M1217.125 41.25c29.48 23.88 49.65 57.72 53.88 95.75 2.36 38.55-5.81 74.46-31.74 104.13-2.72 3-5.46 5.95-8.26 8.87-.61.63-1.21 1.25-1.83 1.9-23.3 23.86-55.6 37.02-88.17 42.1l4.32.85c26.61 5.38 51.1 14.24 72.68 31.15.97.75 1.94 1.5 2.94 2.28 27.57 21.88 46.58 53.44 51.62 88.46 3.09 31.59-1.29 60.23-16.56 88.26-.52.95-1.04 1.89-1.57 2.87-10.08 17.58-25.49 33.16-42.43 44.13-.97.64-1.93 1.27-2.92 1.93-14.44 9.23-29.19 15.04-45.55 19.72-4.53 1.35-4.53 1.35-5.53 2.35 1.47.42 2.94.85 4.46 1.29 25.66 7.5 49.15 18.17 69.54 35.71.85.73 1.71 1.47 2.59 2.22 24.14 21.16 39.12 50.86 42.41 82.78 1.62 26.45-3.36 51.06-17 74-.62 1.04-1.24 2.07-1.87 3.14-13.48 21.36-33.29 35.51-54.78 47.89-3.35 1.97-3.35 1.97-4.35 2.97.75.42 1.5.85 2.27 1.29 32.09 18.38 56.12 45.1 66.73 80.96 8.32 33.16 3.83 67.83-13.32 97.44-4.07 6.58-8.58 12.5-13.68 18.31-.69.82-1.37 1.63-2.08 2.48-9.97 11.6-21.82 20.73-34.92 28.52-.64.39-.64.39-3.88 2.34-20.13 11.8-42.14 17.64-65.12 20.66-.96.13-1.92.27-2.91.4-43.3 5-91.85-5.84-126.36-33.08-5.06-4.29-9.93-8.75-14.73-13.32-.72-.65-1.44-1.31-2.18-1.98-20.58-19.34-33.61-49.58-34.95-77.62-.94-33.88 7.83-65.82 30.56-91.65 1.51-1.59 3.03-3.18 4.57-4.75.85-.93 1.71-1.86 2.59-2.82 10.6-11.17 22.92-19.84 36.41-27.18.32-.33.66-.66 1-1-1.07-.53-2.13-1.07-3.23-1.62-25.48-13.08-47.76-31.36-60.77-57.38-.48-.94-.96-1.87-1.45-2.84-14.02-28.6-15.33-61.07-5.87-91.29 13.27-37.68 40.23-65.07 75.55-82.65 12.72-6.07 26.02-10.17 39.77-13.22v-1c-1.14-.27-2.28-.54-3.46-.81-25.76-6.38-49.01-16.82-68.54-35.19-1.1-1.02-2.2-2.04-3.33-3.09-24.02-23.06-40.02-55.99-40.98-89.57-.02-2.32-.02-4.64-.01-6.97.01-1.22.01-2.45.02-3.72.44-33.07 12.62-63.69 34.3-88.65.68-.82 1.37-1.64 2.07-2.48 22.72-26.43 56.87-43.45 90.96-48.98 2.97-.54 2.97-.54 3.97-1.54-1.21-.21-2.41-.42-3.64-.63-26.9-4.88-54.93-14.54-75.36-33.37-1.67-1.3-3.33-2.59-5-3.87-4.6-3.67-8.3-7.59-12-12.13-.34-.38-.34-.38-2.05-2.28-24.83-28.48-33.15-65.88-30.68-102.81 4.65-40.35 26.22-73.02 56.73-98.91 17.09-12.91 36.36-22.39 57-28 .91-.26 1.83-.51 2.77-.77 49.4-13.26 101.13-.51 141.35 30.02M1034.005 34c-.89.51-1.78 1.02-2.7 1.54-1.81 1.08-3.57 2.26-5.3 3.46v2l-4 1v2c-.66.16-.66.16-4 1v2l-4 2c-4.52 3.36-8.49 7.1-12 11.5-2 2.5-2 2.5-4.26 4.69-23.84 24.39-34.14 58.46-34.05 91.94.49 31.74 12.5 64.33 35.31 86.87.98 1.02 1.96 2.04 2.98 3.09 6.28 6.44 12.38 12.14 20.02 16.91l2.91 1.91c37.5 24.08 83.54 29.91 126.83 21.34 20.22-4.61 39.45-11.95 56.26-24.25.51-.37.51-.37 3.13-2.23 29.09-21.45 48.52-52.31 54.41-88.09 4.31-34.96-3.09-71.09-24.48-99.49-4.48-5.6-9.15-10.98-14.06-16.19l-2.05-2.17c-1.61-1.66-3.27-3.25-4.95-4.83h-2v-2c-6.43-5-6.43-5-9-5v-2c-49.75-39.23-121.95-37.89-175-7m-28 305c-.79.6-1.57 1.2-2.38 1.81-3.64 3.03-6.6 6.57-9.62 10.19-.65.75-1.29 1.51-1.95 2.29-23.7 28.58-32.33 63.25-30.05 99.71 1.85 17.25 7.48 34.88 16 50h2c.16.66.16.66 1 4 1.93 3.75 1.93 3.75 4 7h2c.29.73.58 1.46.87 2.21 2.08 5.16 6.34 8.81 10.13 12.79.4.44.4.44 2.44 2.67 25.2 26.63 63.15 41 99.38 42.53 4.28.11 8.57.13 12.86.12 2.61-.01 5.23.02 7.85.04 25.12.1 48.89-5.31 71.47-16.36 1.16-.57 2.32-1.13 3.52-1.72 31.61-16.22 55.11-43.86 66.79-77.28 11.35-35.79 7.5-72.25-9.35-105.55-6.01-11.37-14.11-21.18-22.96-30.45l-1.78-1.96c-24.8-26.49-63.55-41.29-99.23-43.26-44.37-1.26-90.64 8.37-122.99 41.22m5 269v2c-.66.16-.66.16-4 1v2c-.73.27-1.45.54-2.19.81-3.51 1.48-5.22 3.41-7.81 6.19-1.12 1.09-2.23 2.19-3.38 3.31-24.17 24.33-36.91 55.78-36.87 89.98.37 31.04 13.26 58.3 34.62 80.46 20.66 19.87 46.81 32.84 74.63 39.25-4.08 2.72-6.27 1.79-11 1-.48-.1-.48-.1-2.88-.63-2.12-.37-2.12-.37-4.12.63v-2c-2.02-1.11-2.02-1.11-4.69-2.19-.87-.36-1.74-.73-2.64-1.1-4.48-1.19-6.94-.09-11.01 2-1.19.69-2.38 1.39-3.6 2.1-.59.35-.59.35-3.59 2.08-6.5 3.95-6.5 3.95-9.47 6.11v2h-3v2c-.37.13-.37.13-2.19.81-3.48 1.47-5.21 3.46-7.81 6.19-1.18.99-2.36 1.98-3.57 3-2.9 2.54-5.24 4.85-7.43 8v2c-1 .33-1.99.66-3 1-20.78 24.54-28.89 56.41-27 88 2.37 26.94 13.49 52.96 33 72 .96.98 1.93 1.96 2.93 2.97.51.51.51.51 3.07 3.09 1.01 1.02 2.02 2.05 3.06 3.1 3.24 3.14 6.41 5.94 10.3 8.24 2.53 1.54 4.88 3.19 7.26 4.94 5.2 3.66 10.57 6.52 16.31 9.22 1 .48 2.01.95 3.04 1.43 41.67 19.22 92.96 20.73 136.09 5.26 20.1-7.91 38.02-18.62 53.94-33.25.75-.69 1.51-1.37 2.29-2.08 22.3-21.19 35.48-52.11 36.93-82.61.7-27.93-6.99-57.56-25.22-79.31h-2c-.67-1.32-1.32-2.64-2-4-7.31-9.06-16.06-17.86-26-24h-3v-2c-2.49-1.66-5.04-3.2-7.63-4.69-1.42-.83-2.83-1.66-4.29-2.51-5.74-2.53-8.29-1.47-13.96.64-1.03.51-2.06 1.03-3.12 1.56v2l-4-1c-3.07.68-6 1.43-9 2.31-.81.23-1.62.45-2.45.69-3.75 1.07-7.06 2.25-10.55 4 1.31.66 2.63 1.32 4 2-.98-.16-1.95-.31-2.95-.47-5.78-.76-11.57-.91-17.39-1.15-3.66-.38-3.66-.38-5.66-2.38 1.28-.14 2.57-.27 3.89-.41 33.82-3.89 67.18-14.81 93.11-37.59.82-.71 1.65-1.41 2.5-2.14 22.73-19.85 38.59-47.54 40.72-78.03 1.3-36.24-9.3-67.67-33.95-94.83-5.43-5.63-11.2-10.45-17.55-15.03q-2.7-1.95-5.28-4.05c-4.14-3.25-8.79-5.49-13.44-7.92-.61-.32-.61-.32-3.68-1.95-9.52-4.94-19.12-8.78-29.32-12.05-1.17-.38-2.33-.76-3.52-1.15-49.21-15.17-113.29-6.98-154.48 25.15M826.25 41.75c1.93 1.74 3.85 3.49 5.75 5.25.89.76 1.77 1.52 2.69 2.3 24.69 21.22 41.36 54.67 45.06 86.94 2.42 36.91-5.66 71.87-28.89 101.49-2.21 2.51-4.51 4.89-6.86 7.27-1 1.08-2.01 2.15-3.04 3.26-22.47 23.51-53.57 40.11-85.96 44.74-2.33.04-4.67.05-7 0v2c.72.01 1.44.03 2.18.04 24.76 1.14 49.71 11.87 69.82 25.96 1.06.74 2.12 1.48 3.22 2.24 30.06 21.77 50.4 52.55 57.59 89.07 5.86 37.63-1.78 73.45-23.81 104.69-.32.45-.32.45-1.92 2.73-22.07 29.2-53.95 46.82-89.08 55.27 3.45 1.73 6.55 2.87 10.21 4 23.72 7.46 46.11 16.64 64.5 33.87 2 1.86 4.05 3.59 6.16 5.32 24.3 21.35 37.59 53.1 39.88 84.87 1.38 31.76-8.67 62.03-29.75 85.94-.76.9-1.52 1.81-2.3 2.74-12.35 14.29-28.73 25.1-45.7 33.26 3.36 2.81 6.72 5.07 10.56 7.19 30.81 17.78 51.8 46.08 61.22 80.11 8.48 32.56 2.11 65.99-14.57 94.78-3.91 6.38-8.39 12.2-13.21 17.92-.64.77-1.28 1.55-1.93 2.34-4.83 5.67-10.14 10.18-16.07 14.66-.45.35-.45.35-2.71 2.15-24.98 19.48-54.06 29.96-85.29 33.85-1 .13-2.01.26-3.04.4-36.89 3.94-75.39-2.55-107.96-20.4-1.24-.66-2.47-1.32-3.75-2-7.38-4.06-13.84-8.57-20.25-14-.9-.71-1.81-1.42-2.74-2.15-24.63-19.41-41.56-49.55-45.45-80.71-.38-3.71-.62-7.42-.81-11.14-.06-.9-.12-1.8-.18-2.73-.08-2.45.02-4.82.18-7.27.08-1.35.16-2.69.24-4.08 2.58-31.82 15.67-58.06 37.76-80.92 1.06-1.11 2.12-2.22 3.21-3.37 3.88-3.85 8.1-7.04 12.54-10.19.79-.57 1.57-1.13 2.38-1.71C634.31 827 634.31 827 639 827c-2.73-2.73-4.58-3.97-7.94-5.69-32.25-17.29-55.14-44.18-66.05-79.14-2.49-10.29-3.37-20.35-3.32-30.92 0-1.23.01-2.45.01-3.71.28-20.31 5.44-38.63 14.74-56.6.44-.86.88-1.72 1.34-2.6 3.19-5.94 6.94-11.13 11.22-16.34.89-1.11 1.78-2.22 2.7-3.37 22.36-26.92 55.8-46.13 90.3-52.63-.91-.3-1.82-.61-2.75-.92-2.67-.89-5.33-1.78-8-2.68-2.6-.86-5.22-1.68-7.85-2.46-21.28-6.43-40.42-18.63-56.4-33.94-.88-.81-1.76-1.61-2.67-2.45-7.77-7.35-13.56-15.63-19.33-24.55-.57-.83-1.15-1.66-1.74-2.51-18.33-27.64-21.49-64.83-15.26-96.49 3.71-17.85 10.25-35.15 21-50 .69-.98 1.38-1.97 2.09-2.98C617.08 321.51 654.94 303.05 697 294c-1.2-.21-2.4-.42-3.64-.63-27.33-4.95-52.64-14.73-74.36-32.37-.71-.57-1.43-1.13-2.16-1.72-2.03-1.69-3.93-3.46-5.84-5.28-.56-.52-.56-.52-3.39-3.13-25.63-24.19-39.26-57.5-40.77-92.59-.83-38.32 13.71-74.49 40.11-102.19 57.27-57.94 155.27-68.1 219.3-14.34M648 31c-1.08.59-2.16 1.18-3.27 1.78-6.87 3.88-13.72 8.08-19.73 13.22v2l-4 2a89 89 0 0 0-4.25 3.5c-.71.61-1.41 1.22-2.14 1.84C613 57 613 57 613 59l-3 1c-24.95 26.45-39 61.46-38.19 97.93 2.07 33.76 13.88 63.34 37.19 88.07h2l2 4c2.35 2.17 4.7 4.19 7.19 6.19.71.57 1.43 1.15 2.17 1.74 35.45 27.93 80.5 35.91 124.63 31.69 39.48-5.39 77.8-25.75 102.2-57.65 21.08-29.78 30.23-65.28 24.62-101.47-2.63-13.5-6.48-26.27-12.81-38.5-.64-1.25-1.27-2.51-1.93-3.8C850.76 72.58 839.24 57.68 825 47h-2v-2C773.87 5.21 702.75.88 648 31m-5 287c-1.33.75-2.66 1.49-4.03 2.26-6.99 4.06-13.11 8.18-18.97 13.74-1.37 1.17-2.75 2.34-4.13 3.5-3.67 3.21-6.75 6.75-9.87 10.5l-2.37 2.31c-22.72 23.25-33.95 56.81-33.63 88.99.9 34.28 13.47 66.36 38 90.7 2.28 2.09 4.61 4.04 7 6 .39.4.39.4 2.36 2.39 29.3 28.96 72.74 36.24 112.1 36.03 13.16-.14 25.75-1.32 38.54-4.42 1.52-.36 3.03-.72 4.59-1.1 23.31-6.27 43.52-17.93 61.41-33.9.87-.69 1.75-1.38 2.65-2.09 3.57-2.9 6.41-6.39 9.35-9.91.64-.75 1.28-1.51 1.95-2.29 21.74-26.22 32.19-59.68 29.78-93.54-2.51-25.28-10.43-48.74-25.73-69.17l-2.18-2.91C836.75 338.46 820.23 324.07 801 315c-1.35-.64-2.71-1.29-4.11-1.95C748.44 290.49 689.83 291.68 643 318m38 263c-1.32.29-2.65.58-4.01.87-15.76 3.75-32.35 10.32-45.99 19.13v2l-4 1c-2.75 1.44-2.75 1.44-5 3v2c-.66.16-.66.16-4 1v2c-.66.16-.66.16-4 1-1.38 1.28-2.7 2.63-4 4-1.18.97-2.35 1.94-3.56 2.94-22.11 19.4-36.24 49.05-39.44 78.06-1.4 30.4 3.64 58.65 23 83 .81 1.02 1.62 2.05 2.45 3.1 4.78 5.9 9.59 11.2 15.55 15.9 1.04.83 2.07 1.65 3.14 2.5 5.46 4.28 10.77 8.16 16.86 11.5 1.38.77 2.75 1.54 4.17 2.33 9.09 4.96 18.09 9.19 27.95 12.43 1.99.66 3.94 1.44 5.88 2.24l1 3c-1.09-.19-2.19-.37-3.31-.56C660 833 660 833 657 834l1-2c-5.28-2.22-9.28-3.54-15-3-8.97 4.03-18.53 9.51-26 16v2c-.68.23-1.36.47-2.05.71-4.15 1.82-6.95 4.8-10.08 7.98-.65.67-1.31 1.33-1.99 2.02C580.24 881.12 568 911.42 568 944c.99 25.8 8.35 50.13 24 71h2c.67 1.66 1.34 3.33 2 5 4.56 6.06 10.12 11.24 16 16h2v2c34.75 30.63 82.17 37.8 126.79 35.88 38.13-2.44 73.83-18.43 101.21-44.88.81-.76 1.63-1.52 2.46-2.31 21.77-20.87 34.19-51.39 34.82-81.29.31-33.38-11.19-63.14-34.25-87.34-22.56-22.82-22.56-22.82-34.03-24.06v-2c-6.67-4.03-6.67-4.03-11.06-3.94-3.46 1.1-6.7 2.32-9.94 3.94v2l-4-1c-2.34.27-4.68.6-7 1l2-2h-4c.67-.21.67-.21 4.03-1.25 21.65-6.86 41.79-16.67 58.97-31.75.8-.68 1.6-1.36 2.43-2.06C865.47 777.07 879.71 748.3 882 718c1.65-33.39-9.54-65.19-32-90-27.49-30.03-66.09-46.13-106-51-6.33-.27-12.66-.29-19-.31-.45 0-.45 0-2.72-.01-14.14 0-27.51.98-41.28 4.32M439.208 47.537c27.8 25.94 47.13 59.74 48.79 98.46.89 25.72-3.25 50.49-16 73-.61 1.19-1.23 2.38-1.86 3.6-4.92 9.2-11.18 16.68-18.14 24.4-.97 1.18-1.94 2.36-2.94 3.57-20.84 23.42-54.38 38.8-85.06 43.43 4.81 1.42 9.62 2.62 14.5 3.75 25.43 6.36 48.16 19.76 67.5 37.25.87.79 1.75 1.58 2.65 2.39 26.46 25.18 39.95 60.85 41.54 96.77.34 20.63-3.32 41.13-12.19 59.84-.5 1.11-1 2.21-1.52 3.35-6.16 13.04-14.51 24.28-24.48 34.65-.85.91-1.7 1.81-2.58 2.75-20.98 21.69-46.79 32.5-75.42 40.25 4.45 1.72 8.9 3.32 13.44 4.77 36.17 11.55 67 30.66 87.56 63.23.66 1 1.31 1.99 1.99 3.02 16.28 25.88 20 58.59 14.2 88.14-4.51 19.48-12.98 37.74-26.19 52.84-.54.66-1.08 1.32-1.63 2-11.95 14.35-27.14 23.95-42.95 33.51-2.42 1.49-2.42 1.49-3.42 2.49.49.26.49.26 2.97 1.59 31.14 16.98 57.9 42.17 68.8 76.87 9.93 34.08 6.83 68.54-10.08 99.86-4.31 7.38-9.26 14.08-14.69 20.68-1.03 1.28-2.06 2.56-3.12 3.88-3.39 3.68-7.05 6.91-10.88 10.12-.87.78-1.75 1.55-2.65 2.35-12.11 10.52-25.91 17.81-40.35 24.65-.94.46-1.89.93-2.86 1.4-41.58 18.92-94.72 17.34-137.14 2.6-22.53-8.47-41.77-21.23-59-38-.92-.9-1.85-1.8-2.81-2.73-23.63-24.3-33.93-57.77-33.5-91.14 1.52-32.51 14.52-62.78 38.31-85.13.82-.82 1.63-1.64 2.47-2.48 8.72-8.66 18.4-15.15 28.92-21.36 3.61-2.16 3.61-2.16 4.61-3.16-.65-.35-1.31-.7-1.98-1.06-3.02-1.63-6.02-3.28-9.02-4.94-.48-.26-.48-.26-2.94-1.6-28.93-16.24-49.72-41.78-58.93-73.71-5.59-20.86-7.06-44.75-1.13-65.69.23-.79.45-1.59.69-2.41 10.96-37.79 35.61-64.91 69.72-83.78 14.01-7.56 31.38-15.81 47.59-15.81v-2c-1.28-.1-2.56-.21-3.88-.31-5.2-.59-10.05-1.96-14.99-3.62-.91-.31-1.81-.61-2.75-.93-36.83-12.91-66.53-40.18-83.38-75.14-14.84-32.41-15.37-70.96-3.48-104.38 2.76-6.75 6.09-13.17 9.48-19.62.45-.94.9-1.88 1.36-2.85 15.43-31.38 49.52-54.14 81.49-65.51 8.25-2.81 16.6-4.91 25.15-6.64v-1c-1.1-.22-2.2-.43-3.34-.66-28.49-5.96-54.36-17.34-75.67-37.47-1.99-1.87-1.99-1.87-5.05-4.24-4.56-4.07-8.19-8.82-11.94-13.63-.66-.82-1.32-1.64-2-2.49-22.2-28.79-29.44-65.81-25.31-101.44 2.59-15.76 7.33-29.78 14.31-44.07.47-.99.94-1.98 1.43-3 17.52-34.63 51.72-59.68 87.87-71.96 10.1-3.27 20.17-5.63 30.7-7.04.93-.13 1.87-.26 2.83-.39 44.97-5.17 92.91 9.36 126.38 39.93m-200.21-6.54v2c-2.66 1.34-5.33 2.67-8 4-1.71 1.63-3.37 3.3-5 5l-2.79 2.73c-26.61 26.12-42.79 59.19-43.51 96.75-.11 27.48 6.69 54.56 22.3 77.52h2c.67 1.67 1.34 3.34 2 5 2 2.82 2 2.82 4 5h2l2 4c21.92 28.74 60.35 43.25 95 48 42.02 5.01 86.4-3.53 120.42-29.62 7.97-6.56 15.67-13.7 22.58-21.38v-2h2c23.12-29.61 32.17-63.88 28.57-101.15-4.97-36.85-25.07-67.01-52.44-91.41-2.13-1.44-2.13-1.44-5.13-1.44v-2c-53.62-40.38-131.95-39.98-186-1m0 284c-1.01.58-2.02 1.16-3.06 1.75-.64.42-1.28.83-1.94 1.25v2c-1.66.67-3.33 1.34-5 2v2l-4 2c-5.31 4.08-9.87 8.74-14 14v2c-.49.17-.49.17-3 1-.69 1.66-1.35 3.33-2 5h-2c-21.42 27.33-28.54 65.14-24.5 99.02.67 4.05 1.5 8 2.5 11.98.34 1.4.68 2.8 1.03 4.25 6.38 23.81 20.33 46.5 38.97 62.75h2v2c1.74 1.45 3.54 2.81 5.38 4.13.99.72 1.99 1.45 3.02 2.19 2.6 1.68 2.6 1.68 4.6 1.68v2c39.02 25.18 88.7 32.55 134 23 21.87-4.83 43.15-13.17 61-27v-2c1.67-.67 3.33-1.33 5-2 1.95-1.57 1.95-1.57 3.77-3.4.66-.66 1.32-1.33 2-2.01.68-.69 1.35-1.38 2.04-2.09.7-.69 1.39-1.38 2.1-2.09 5.09-5.14 5.09-5.14 5.09-7.41l4-2c13.46-16.11 22.64-36.58 27-57 .24-1.09.49-2.18.74-3.31 6.37-35.17-2.64-71.61-22.61-100.85-2.32-3.33-4.7-6.59-7.13-9.84h-2l-2-4c-1.72-1.88-3.49-3.71-5.31-5.5-.47-.47-.47-.47-2.86-2.84-7.08-6.66-7.08-6.66-9.83-6.66v-2c-28.43-21.89-63.04-32.46-98.69-32.31-1.39.01-2.79.01-4.23.02-32.43.38-63.27 10.02-90.08 28.29m7 271c-1.94 1.02-3.9 1.99-5.87 2.94-4.26 2.1-8.37 4.14-12.13 7.06v2h-3v2c-.66.17-.66.17-4 1v2l-4 2a132 132 0 0 0-4.94 4.82l-2.52 2.58-2.54 2.6c-.83.81-1.66 1.63-2.51 2.46-22.72 23.26-31.05 54.29-30.84 85.95.51 26.38 9.77 51.67 27.35 71.59.79.93 1.58 1.85 2.4 2.8 6.16 7.06 6.16 7.06 9.6 8.2l1 3c2.07 1.76 4.21 3.44 6.38 5.07 1.16.87 2.32 1.75 3.52 2.66 5.83 4.27 5.83 4.27 9.1 4.27v2c15.63 9.83 33.17 15.68 51 20 1.65.42 3.29.84 4.94 1.25.51.13.51.13 3.06.75l-1 2c-6.52-.28-12.26-1.48-18.45-3.47-5.98-1.23-10.45 1.78-15.67 4.47-7.62 3.92-7.62 3.92-10.88 5 1.11-.54 2.22-1.08 3.36-1.64 1.45-.72 2.9-1.43 4.39-2.17.72-.35.72-.35 4.36-2.14 3.89-2.05 3.89-2.05 7.89-5.05-1.53-.7-3.07-1.39-4.62-2.06-.86-.38-1.72-.76-2.6-1.16-4.57-1.28-7.67-.29-11.9 1.68-9.04 5.22-17.84 10.85-25.88 17.54v2l-4 2c-23.48 18.13-35.26 47.52-39.61 76.04-3.03 31.3 5.07 60.02 22.61 85.96.33.5.33.5 2 3h2l2 4c1.42 1.71 2.88 3.37 4.38 5 .77.85 1.54 1.69 2.33 2.57.38.4.38.4 2.29 2.43.36.38.36.38 2.17 2.32 1.83 1.68 1.83 1.68 3.83 1.68.17.5.17.5 1 3l4 1v2c5.41 4 5.41 4 8 4v2h3v2c40.88 25.98 92.27 31.44 139.07 21.25 25.99-6.36 49.6-17.72 69.93-35.25.73-.6 1.46-1.21 2.21-1.84 4.76-4.01 8.88-8.33 12.79-13.16.7-.86 1.4-1.72 2.12-2.61 20.26-25.94 29.55-56.97 25.98-89.8-3.53-27.92-15.7-50.44-35.1-70.59-1.07-1.17-2.14-2.35-3.25-3.56-9.5-9.29-21.16-16.12-32.75-22.44-.61-.36-.61-.36-3.72-2.22-3.28-1.78-3.28-1.78-6.22-1.71-3.75 1.15-7.41 2.48-11.06 3.93l1 2h-1c-.51.05-.51.05-3.09.29-1.27.11-2.54.22-3.85.34-.63.06-.63.06-3.84.35-1.06.01-2.12.02-3.22.02l-2-2c1.26-.35 2.52-.7 3.81-1.06 16.31-4.66 30.91-10.67 45.19-19.94.47-.26.47-.26 2.87-1.61.7-.45 1.41-.91 2.13-1.39v-2c.73-.28 1.45-.56 2.19-.85 3.28-1.34 5.18-3.04 7.75-5.46 2.66-2.47 5.25-4.83 8.12-7.06 21.72-19.4 33.79-48.55 35.88-77.19.96-33.9-10.29-65.08-33.31-90.16-23.38-24.69-54.6-39.48-87.63-46.28-1.48-.32-2.97-.63-4.49-.96-35.09-6.43-87.57-4.49-117.51 17.96"/><path fill="#f8e7c5" d="M693.785 841.402c9.59.73 19.17.96 28.78 1.2 6.87.19 13.62.49 20.43 1.4l-4 2-1 2 5 1v2l3-3 3-3-1-2c12.7-1.37 22.49-.79 34 5 1.24.59 2.47 1.18 3.74 1.79 19.62 9.56 36.05 21.59 49.26 39.21v3h2c10.24 16.42 14.39 32.05 14.25 51.25l.03 3.39c-.02 6.07-.3 11.54-2.28 17.36-.33.16-.33.16-2 1 .16-1.03.32-2.07.48-3.13 1.7-12.8 1.37-25.02.52-37.87h-2c.33.84.66 1.69 1 2.56 1.07 3.65 1.16 6.66 1 10.44l-4 1v3l2 1-5-1v2c4 2 4 2 7 3 .44 3.35.13 6.61 0 10l-4-2c-2.57.9-2.57.9-5.25 2.37-.89.48-1.78.97-2.7 1.46-.67.39-1.35.77-2.05 1.17-.72-1.16-1.44-2.31-2.18-3.5-.46-.73-.91-1.45-1.38-2.2-.94-1.51-1.88-3.03-2.81-4.54-3.41-5.55-3.41-5.55-5.63-7.76-.25-.79-.51-1.57-.77-2.38-1.62-3.47-3.56-4.55-6.79-6.56-1.08-.68-2.16-1.37-3.27-2.07-1.05-.66-2.09-1.32-3.17-1.99-1.54-1.08-3.08-2.16-4.62-3.25-4.52-3.02-9.27-4.97-14.38-6.75-.91-.34-1.82-.69-2.76-1.04-3.34-.99-6.05-1.23-9.53-1.27-1.2-.02-2.4-.05-3.63-.07l-3.83-.06c-12.19-.29-24.56-.67-36.25-4.56v-3c-5.03-2.43-10.38-2.43-15.87-2.63-.88-.04-1.76-.07-2.66-.11-2.16-.1-4.31-.18-6.47-.26v-4c-2.06.42-4.12.86-6.18 1.31-1.15.24-2.3.49-3.48.74-3.23.92-5.52 2.16-8.34 3.95h-2v-3c-2.6 1.6-5.21 3.2-7.81 4.81-.74.45-1.47.9-2.23 1.37-3.35 2.08-6.16 4.02-8.96 6.82h-2l-1-5c-4.78.14-7.16 2.66-10.35 6.01-2.29 2.77-3.92 5.85-5.65 8.99h-2v3h-2l-2-8c-2.93.69-2.93.69-6 2-.62 2.19-.62 2.19-1 5-1.68 3.87-1.68 3.87-4 7-3.25-.06-3.25-.06-6-1v-2h-4v2h-2l1-4h-2v2c-.49.16-.49.16-3 1l4 2v2c2.62 1.2 5.27 2.09 8 3 .33-.5.33-.5 2-3 0 5.51-.22 5.83-3.81 9.5-4.25 4.4-7.01 7.51-7.56 13.75-.1.62-.1.62-.63 3.75-4.29 2.42-9.5.2-14-1l-4-2 1 8c-5.8-5.81-5.25-14.71-5.27-22.54.01-1.1.02-2.2.02-3.34 0-1.09-.01-2.19-.02-3.31.02-9.5.62-19.11 4.59-27.87.43-.98.87-1.96 1.32-2.96.45-.99.9-1.97 1.36-2.98.46-1.06.91-2.11 1.37-3.2 2.51-5.8 2.51-5.8 3.63-7.8h2l1-4c8.27-14.05 21.28-25.53 35-34 1.11-.7 2.22-1.4 3.37-2.12 8.51-5.12 17.25-8.67 26.63-11.88.9-.36 1.79-.71 2.71-1.07 4.89-1.8 8.89-1.97 14.08-1.53m2.21 18.6 2 5-4 1 4 1v4l4 1-10-3 1 5h2v2c.77-.23 1.53-.46 2.32-.69.88-.1 1.77-.21 2.68-.31l3 3c3.69-.81 3.69-.81 7-2l-1-9h-3v2l-5-1v-2l3-1v-2c-2.61-1.21-5.26-2.09-8-3"/><path fill="#2f1306" d="M708 901v4c1.29-.03 2.58-.07 3.91-.11 1.72-.02 3.44-.05 5.15-.08.43-.01.43-.01 2.57-.07 5.52-.07 9.47.73 14.37 3.26l-1 3c13.43 2.33 26.59 3.41 40.22 3.62 1.19.02 2.37.05 3.59.07.52.01.52.01 3.18.04 3.27.29 5.94 1.12 9.01 2.27.94.34 1.89.69 2.86 1.04 6.13 2.43 11.39 5.19 16.68 9.14 1.7 1.25 3.43 2.46 5.2 3.61 4.99 3.27 8.03 5.5 10.26 11.21.6.72 1.2 1.44 1.81 2.19 4.86 6.25 8.17 13.53 11.19 20.81 2.4 5.29 4.64 9.13 9 13 .12-.74.25-1.49.38-2.25C847 973 847 973 849 969c1.62 3.24.12 6.28-.72 9.69-.05.38-.05.38-.28 2.31l2 2v3c-.83.16-.83.16-5 1 .5 1.42.99 2.85 1.5 4.31 1.74 5.71 1.73 10.75 1.5 16.69-8.36.26-8.36.26-13-1.62-4-.38-4-.38-6.11 1.36-1.53 1.75-3.02 3.53-4.48 5.33-6.83 8.32-15.81 16-25.41 20.93l-3-1c1.81-2 1.81-2 4-4h3v-2c2.33-1.34 4.67-2.67 7-4 2.07-1.73 4.1-3.52 6.06-5.38 1.03-.96 2.06-1.93 3.12-2.92l2.82-2.7c.69-.65 1.39-1.31 2.11-1.98 1.34-1.29 2.62-2.65 3.89-4.02v-2c-.37-.14-.37-.14-2.23-.86-3.22-1.33-4.77-2.86-7.08-5.45l-2.12-2.3C815 993 815 993 815 988l-3-1c-.69-3.56-.69-3.56-1-7-.58.64-1.15 1.28-1.75 1.94C807 984 807 984 803 985c.25.47.25.47 1.5 2.88C806 991 806 991 806 993h2c.44 3.82.38 5.49-1.94 8.62-3.95 3.07-7.49 3.29-12.31 3.69-9.16 1.02-15.83 3.59-23.95 8.05-5.69 2.46-9.98 2.24-15.8.33-.99-.56-1.98-1.12-3-1.69v-3c-3 1.06-5.01 2.01-7.44 4.12-5.55 2.93-11.4 2.54-17.56 1.88l-3-2c0-4.7.62-7.41 3.19-11.38 2.98-2.78 4.91-3.62 8.81-4.62l4-2c1.7-.39 3.41-.72 5.12-1 5.32-.9 10.6-1.93 15.88-3-.72-.7-1.44-1.4-2.19-2.12-2.81-2.88-2.81-2.88-5.12-6.26-.89-.86-1.78-1.73-2.69-2.62-7.1.1-7.1.1-9 2-1.46.12-2.93.25-4.44.38-1.5.2-3.01.41-4.56.62l-2 3h-2v2c-1.42.28-2.83.56-4.29.85-43.3 8.67-43.3 8.67-52.71 22.15-3.53 2.36-5.19 2.3-9.38 2.31-1.12.02-2.24.04-3.39.05-3.55-.4-5.43-1.18-8.23-3.36-.91-4.01-.08-5.85 1.81-9.5 3.56-3.9 6.86-5.68 11.53-8.01 3.49-1.95 5.96-4.58 8.66-7.49h2v-2c2.41-1.07 2.41-1.07 5.5-2.12 1.02-.36 2.04-.71 3.09-1.08.8-.26 1.59-.53 2.41-.8l-11-3c-.16.5-.16.5-1 3-1.67.33-3.33.67-5 1-.16.5-.16.5-1 3-2.89 1.45-5.73 1.46-8.94 1.81-9.53 1.25-16.83 3.57-24.81 8.94-4.26 2.84-7.01 4.23-12.25 3.25-.5-.33-.5-.33-3-2a96 96 0 0 0-7 0c10.56 15.26 24.08 31.28 41.94 38.12l2.06.88 1 3c-12.23-1.72-23.73-13.41-32-22l-2.56-2.5c-3.69-3.78-7.27-7.58-10.03-12.1-4.3-7.02-4.3-7.02-8.04-8.31-.91-.13-1.81-.26-2.75-.4-1.52-.23-3.05-.46-4.62-.69-.98-2.29-.98-2.29-1-5l3-4h2l-1-8 3 1v4c15.65-11.67 15.65-11.67 16.69-18.62 1.34-7.81 6.89-12.96 12.31-18.38.75-2.16 1.5-4.33 2.18-6.51 3.48-10.6 3.48-10.6 7.82-13.49h3c2 3 2 3 2 8h2v-3h2c.23-.66.45-1.32.69-2 2.59-5.92 7.21-10.18 12.31-14l4 1v5c.62-.44 1.23-.87 1.87-1.32C685.48 904 685.48 904 688 904v3l3.06-1.88c5.68-3.06 10.49-4.43 16.94-4.12m-42 30c-3.46 2.06-6.14 4.14-9 7-.87.5-1.73.99-2.62 1.5C652 941 652 941 651 944c4.59-1.15 7.25-3.19 11-6l-1 3-1 4c-.72.64-1.44 1.28-2.19 1.94L656 949c.56 2.69.56 2.69 2 5l3 1c-.25-.95-.5-1.9-.75-2.88-.08-1.03-.16-2.06-.25-3.12l4-2c3.78-4.48 3.78-9.36 4-15zm106 14c-4.05 4.79-4.92 8.78-5 15 1.39 11.29 9.57 18.18 18 25 3 4 3 4 3 9 .5.16.5.16 3 1 3-2 3-2 3.69-5.12.1-.95.2-1.9.31-2.88h-2l-1-2h-2c-2-4-2-4-2.5-7.62C787 974 787 974 785 972l4 1v-2l-3-3h-2l-3 3-3 1c-5-7.5-5-7.5-5-12h-2c-.32-5.3.42-8.38 3-13v-2zm-80 2-1 2h-3l3 12-1-2h-2l-1 4-1-1h-5v2h-4v-4l-4-1c-1 4-1 4 .44 6.56.51.81 1.03 1.61 1.56 2.44v3c5.11 3 5.11 3 8 3l1-2c1.2.54 2.39 1.07 3.62 1.62 4.63 1.46 6.11 1.41 10.38-.62l-4-8 2.88 3c3.12 3 3.12 3 5.12 3 .19-2.88.19-2.88 0-6l-3-2c-.69-2.62-.69-2.62-1-5h-2l1-4h-2v-7zm66 7v2l-9 2v2c-.93-.1-1.85-.19-2.81-.29-1.2-.11-2.39-.22-3.63-.33-1.19-.12-2.39-.24-3.62-.36-.97 0-1.94-.01-2.94-.02l-1 2-4-2-2 2c-.78-.83-1.57-1.65-2.38-2.5C724 956 724 956 722 956v3h2c.06 1.11.12 2.23.19 3.38.95 5.44 2.25 10.28 5.81 14.62 4.25.75 4.25.75 8 0l1-2c1.11.06 2.23.12 3.38.19 5.22-.21 8.18-1.67 12.79-3.94 4.2-1.85 8.31-2.53 12.83-3.25-.16-.66-.16-.66-1-4-.07-2.25-.08-4.5-.06-6.75.01-1.17.02-2.34.02-3.55.02-.89.03-1.78.04-2.7-2.99 0-6.3 1.88-9 3m-134 6c-.19 3.38-.19 3.38 0 7 3.33 2.22 4.22 2.18 8.06 2H637l2 2c-.69.21-.69.21-4.19 1.25-3.99 1.3-6.56 3.08-9.81 5.75l-3-1-1 2c-.56-.7-1.11-1.4-1.69-2.12-.76-.62-1.52-1.24-2.31-1.88-4.41.86-5.2 2.26-8 6 .81 2.5.81 2.5 2 5v4c4.2 1.49 7.45.64 11.57-.83 4.3-2.07 7.84-5.07 11.43-8.17l1 1c-8.43 6.43-8.43 6.43-13 9l1 2c4.89-1 8.6-2.86 12.81-5.44 8.14-4.88 15.81-6.68 25.19-7.56l2-1c.94-2.88.94-2.88 1-6-2.12-1.75-2.12-1.75-5-3-.77-.35-1.53-.71-2.32-1.07-2.98-1.04-5.23-1.1-8.37-.99-5.12.16-5.12.16-7.31-.94.38-3.56.38-3.56 1-7l-4 2-1 3c-3.06.69-3.06.69-6 1v2l-2-1 2-2v-3l4-1v-2c-3.79 0-7.27.43-11 1m129 15c1.44 4.8 4.08 7.3 7.69 10.69 1.82 1.71 3.61 3.47 5.31 5.31-1 2-1 2-4.38 3.25-1.38.44-2.76.87-4.18 1.31-2.49.78-4.97 1.59-7.44 2.44v1c9.03.66 17.3-1.76 26-4-1.78-5.24-4.62-7.63-9-11h-2l-2-4c-2.44-3.25-2.44-3.25-5-6-3 0-3 0-5 1"/><path fill="#a73c1e" d="M723.953 585.867c37.73-.83 80.33 12.83 108.23 38.45 1.96 1.87 3.9 3.77 5.82 5.68.85.84 1.71 1.68 2.59 2.54 20.23 20.69 32.17 48.92 32.78 77.9-.24 12.53-2.83 24.59-6.37 36.56-.54-.72-1.08-1.44-1.63-2.18-3.33-3.95-7.09-6.96-11.37-9.82.15-2.33.33-4.67.63-6.98.67-5.53.74-11.09.93-16.64.04-1.2.09-2.39.13-3.62.11-2.92.21-5.84.31-8.76h-2l-1 4c-.2-1.77-.38-3.54-.57-5.31-.1-.99-.2-1.97-.31-2.99-.12-2.7-.12-2.7.88-5.7-3.66-15.18-11.26-27.98-21-40-.69-.85-1.38-1.7-2.09-2.58-22.51-26.49-57.86-39.79-91.66-42.73-38.48-2.83-77.02 6.54-107.25 31.31-21.18 18.39-34.04 41.12-38 69-.6 8.67.28 17.37 1 26-.81.13-1.61.25-2.44.38-.85.2-1.69.41-2.56.62-1.86 3.72-1.45 7.96-1 12 2.69 5.38 6.35 8.93 11.93 11.19 4.46 2.64 6.38 6.48 9.07 10.81 9.22 13.5 21.28 23.39 35 32 1.23.79 2.46 1.57 3.72 2.37 3.28 1.63 3.28 1.63 7.28.63 4.44 1.79 8.67 3.84 12.96 5.98 5.92 2.61 12.07 3.62 18.41 4.71 1.16.21 2.31.42 3.5.64 7.04 1.26 14 2.13 21.13 2.67v1l-9 1c38.61 3.54 74.28-3.77 108-23l2-2c2.53.06 2.53.06 5.5.44 5.3.66 5.3.66 7.5-.44.39-2.66.72-5.32 1-8 1.05-4.21 2.09-5.6 4.93-8.75.36-.4.36-.4 2.16-2.42 1.91-1.83 1.91-1.83 3.91-1.83 1.66 1.67 3.33 3.34 5 5 1.63 1.06 3.29 2.08 5 3-13.08 23.53-45.65 37.93-70.28 45.26-46.86 12.74-98.52 9.09-141.29-14.66-26.8-15.41-46.12-38.04-55.43-67.6-7.53-28.68-4.47-58.34 10.36-84.13 1.64-2.87 1.64-2.87 2.64-5.87h2v-3h2c.25-.69.51-1.39.77-2.1 2.67-6.3 8.55-11.01 13.23-15.9.65-.72 1.3-1.45 1.97-2.2 21.37-23.17 54.02-34.13 84.03-39.8 1.03-.19 2.06-.39 3.12-.59 7.88-1.11 15.89-1.18 23.83-1.54"/><path fill="#e39c21" d="M1209 602c.51.32.51.32 3.06 1.94L1215 606c.79.54 1.57 1.08 2.38 1.63 27.58 19.38 45.93 46.69 53.43 79.62 5.4 31.74-1.18 63.27-19.85 89.63-1.92 2.44-3.9 4.79-5.96 7.12-.71.83-1.42 1.66-2.15 2.51-21.88 25.07-51.73 39.69-83.79 47.18-.85.2-1.71.4-2.59.61-13.75 3.07-27.47 4.07-41.53 4.01-1.53 0-3.06-.01-4.64-.01-39.68-.43-79.51-11.39-110.3-37.3l-2.67-2.24C974.56 778.92 959.89 752.22 957 722c-2.18-33.83 8.15-65.97 30-92 3.45-3.71 7.24-6.98 11.07-10.29 1.67-1.48 3.25-3.05 4.81-4.65C1005 613 1005 613 1007 613v-2c.66-.16.66-.16 4-1v-2c2.57-1.8 5.13-3.45 7.81-5.06.81-.49 1.62-.98 2.46-1.48 56.23-33.32 131.91-35.23 187.73.54m-213.5 33.62c-22.07 25.26-30.23 54.55-28.5 87.38 2.41 23.13 11.18 42.99 27 60 .92 1.01 1.83 2.02 2.77 3.05 27.16 28.65 68.34 42.6 107.14 44.06 45.06.88 90.48-8.85 124.02-41.04 8.15-8.16 15.17-16.14 21.07-26.07.74-1.07 1.49-2.14 2.25-3.25 12.19-19.16 14.74-46.37 10.55-68.37-4.53-19.04-11.29-38.64-24.8-53.38h-2l-2-4c-16.39-18.95-38.81-30.64-62-39-1.11-.41-2.23-.82-3.38-1.24-15.18-5.12-31.66-7.35-47.62-7.76l-2.91-.12c-45.64-1.09-90.21 16.56-121.59 49.74m-272.125-58.995h2.68c14.01.03 27.31 1.02 40.94 4.38 1.54.35 3.07.7 4.65 1.06 28.27 7.09 53.43 21.79 74.35 41.94 1.2 1.09 2.4 2.18 3.63 3.31 18.68 20.41 31.43 47.81 32.37 75.69.03.55.03.55.16 3.33.87 33.85-13.06 63.27-35.93 87.5-9.59 9.42-20.5 16.67-32.23 23.17-1.24.68-2.48 1.37-3.76 2.08-26.75 14.11-56.4 19.33-86.42 19.23-.86 0-1.71-.01-2.6-.01-12.99-.04-25.48-.6-38.22-3.3-.81-.17-1.62-.34-2.46-.51-27.9-5.82-52.56-18.47-74.54-36.49-.58-.47-.58-.47-3.56-2.82-4.68-4.34-8.53-9.15-12.44-14.18-.68-.86-1.36-1.72-2.07-2.6-9.54-12.42-15.26-26.26-18.93-41.4-.12-.51-.12-.51-.74-3.05-6.55-33.41 2.79-66.58 21.25-94.49 6.3-8.75 13.19-16.58 21.49-23.46.93-.79 1.86-1.57 2.82-2.38 2.18-1.62 2.18-1.62 4.18-1.62v-2c.66-.17.66-.17 4-1v-2c5.3-4 5.3-4 9-4v-2c18.58-11.38 38.71-17.99 60-22 .95-.19 1.9-.38 2.88-.57 9.8-1.74 19.57-1.83 29.5-1.81m-112.38 53.38-2.3 2.18c-4.43 4.28-8.19 8.74-11.7 13.82v2h-2v3h-2c-15.95 26.37-20.55 57.06-14 87 8.77 31.31 29.43 54.53 57 71 44.3 24.17 96.98 26.85 145 13 24.83-7.82 49.89-22.14 66-43v-2h5c2.22-3.17 3.72-6.08 4.85-9.77 1.4-3.91 3.38-7.21 5.47-10.8 11.65-20.95 13.61-47.49 7.68-70.43-6.82-23.36-17.81-45.36-37-61-.76-.68-1.52-1.35-2.31-2.05-60.83-52.47-162.66-48.79-219.69 7.05"/><path fill="#a73c1e" d="M665.227 834.215c.52.14.52.14 3.12.83 1.09.29 2.17.59 3.28.89 1.09.29 2.17.58 3.3.88q4.035 1.08 8.07 2.19l-2 2h-3v2c.33.16.33.16 2 1l-5 1v-2c-29.94 10.63-56.94 30.2-71.08 59.28-5.97 13.97-9.1 27.5-8.98 42.72l.06 8 1-20h1l.12 4.75c.3 10.47.64 20.53 3.26 30.73.62 2.52.62 2.52.62 5.52h-2c.25 1.23.5 2.47.75 3.75.25 4.25.25 4.25-1.68 6.43-.68.6-1.37 1.2-2.07 1.82v5c1.47-.09 2.93-.17 4.44-.25 3.82.36 5.23.92 7.99 3.67 2.3 3.13 4.45 6.32 6.57 9.58 4.45 6.17 9.14 11.17 15 16 .54.47.54.47 3.24 2.86 3.83 3.19 7.74 5.9 11.95 8.57 1.38.89 2.75 1.77 4.17 2.69 3.64 1.88 3.64 1.88 7.64.88 2.5 1 2.5 1 5.44 2.56 9.11 4.45 18.8 6.84 28.56 9.44l-3 2c12 2.62 23.67 3.3 35.94 3.31.7 0 .7 0 4.24.01 8.13-.05 15.85-.67 23.82-2.32l-2-2c8.5-1.13 8.5-1.13 13 0 11.08-2.78 21.21-7.15 31-13l-1-2c4-1 4-1 6 0 10.92-6.19 21.15-14.84 28.75-24.82 1.08-1.05 2.15-2.1 3.25-3.18 3.88.43 3.88.43 8 2 3 .46 5.98.71 9 1-17.72 27.73-50.83 46.4-82.41 53.51-43.26 9.09-90.8 6.02-129.09-17.95-2.18-1.5-4.35-3.02-6.5-4.56-1.09-.79-2.19-1.57-3.32-2.37-14.91-11.03-26.89-24.24-35.68-40.63v-2h-2c-1.26-2.87-2.38-5.69-3.43-8.63-.32-.86-.63-1.72-.95-2.61-9.91-28.04-9.51-59.54 3.2-86.64 6.22-12.08 13.88-22.28 23.18-32.12.69-.76 1.37-1.51 2.08-2.28 11.72-12.37 28.19-24 44.92-27.72 2.81-1.41 4.22-.6 7.23.21"/><path fill="#e39c21" d="M415.715 829.715c14.68 7.73 27.3 16.75 39.29 28.29 1.19 1.09 2.39 2.18 3.62 3.31 20.91 22.84 32.46 53.25 31.28 84.24-1.93 33.72-16.22 65.16-41.6 87.85-2.72 2.26-5.49 4.44-8.3 6.6-.43.33-.43.33-2.58 2.01-38.25 29.03-87.69 37.11-134.42 30.99-20.39-3.14-38.77-9.31-57-19-.99-.52-1.98-1.03-3-1.56-2.04-1.08-4.03-2.25-6-3.44v-2h-3v-2l-4-2-4-2v-2c-.83-.33-1.65-.66-2.5-1-.83-.33-1.65-.66-2.5-1v-2l-4-2c-4.7-4.21-9.39-8.82-13-14v-2h-2c-19.77-25.48-27.94-57.79-24.5-89.67 4.36-28.84 17.39-59.38 41.5-77.33h2v-2c24.21-20.36 24.21-20.36 34.19-19.84 3.68 1.09 7.24 2.42 10.81 3.84-3.8 2.84-7.31 4.7-11.57 6.75-12.22 6.06-22.25 13.15-32.43 22.25-.74.64-1.47 1.29-2.22 1.95-19.31 18.12-31.23 45.28-32.12 71.64-.45 34.73 9.28 64.6 33.71 90.16 33.45 31.97 76.7 41.28 121.66 40.6 41.46-1.21 80.53-19.4 108.97-49.42 3.77-4.39 7.01-9.14 10.25-13.93.5-.75 1.01-1.5 1.53-2.27 4.54-6.86 7.67-13.9 10.22-21.73l1-1c.35-1.68.65-3.37.93-5.07.54-3.21 1.15-6.23 2.1-9.35 3.74-17.85 2.35-38.56-4.03-55.58-.52-1.39-1.04-2.78-1.58-4.21-4.45-10.91-10.57-20.54-17.49-30.04-1.93-2.75-1.93-2.75-1.93-4.75l-4-2c-1.85-1.65-3.66-3.35-5.44-5.07-7.32-6.81-15.18-12.45-23.88-17.37-.88-.52-1.77-1.03-2.68-1.56v-2c-2.33-.7-4.67-1.36-7-2-4.43-1.8-8.73-3.87-13-6 7.09-4.73 10.99-5.85 18.71-2.29m392.598.723c.89.52 1.77 1.03 2.69 1.56v2c.33.04.33.04 2.03.2 11.92 3.22 23.52 15.36 31.97 23.8.88.87 1.76 1.75 2.67 2.64 7.05 7.33 12.25 15.59 17.33 24.36l1.52 2.62c14.41 26.65 16.16 59.01 8.26 87.83-10.46 33.86-35.04 61.73-65.97 78.76-43.47 22.76-96.11 26.25-142.81 11.79-17.76-5.64-34.55-14.22-49-26l-3-2v-2l-4-2c-6.29-4.81-11.37-10.58-16-17v-2h-2c-19.39-25.63-26.7-57.59-22.79-89.2 4.96-30.28 19.6-56.62 42.79-76.8 1.65-.7 3.31-1.38 5-2v-2c20.13-15.1 20.13-15.1 29.69-16.56 4.02.68 7.55 1.98 11.31 3.56-3.29 3.29-6.06 4.6-10.25 6.56-13.57 6.69-24.94 14.9-35.75 25.44-1.2 1.1-2.4 2.19-3.63 3.32-20.54 22.44-30.48 50.44-29.66 80.73.7 12.11 3.08 23.3 7.15 34.71 1.31 3.72 2.28 7.4 3.14 11.24h2c1.42 2.23 2.76 4.51 4.06 6.82 4.11 6.98 8.52 13.16 13.94 19.18.35.41.35.41 2.15 2.44 11.65 12.43 26.33 21.77 41.85 28.56 1.39.62 2.79 1.23 4.22 1.87 11.65 4.83 23.41 7.8 35.78 10.13 1.31.25 2.62.5 3.97.75 40.97 6.31 86.43-2.26 120.55-26.22 3.23-2.44 6.37-4.94 9.48-7.53.87-.72 1.74-1.43 2.64-2.17 11.19-9.62 19.87-21.18 27.36-33.83.49-.83.98-1.65 1.49-2.51 13.11-24.02 13.35-54.02 6.38-79.86-3.73-12.13-9.52-23.1-16.62-33.59-1.25-2.04-1.25-2.04-1.25-4.04h-2c-1.35-1.99-2.68-3.99-4-6-2.13-2.31-2.13-2.31-5-5-.34-.32-.34-.32-2.02-1.96-12.86-12.13-28.27-20.22-43.98-28.04 5.67-5.67 11.54-5.5 18.31-2.56"/><path fill="#f8e7c5" d="M683 488c10 .67 10 .67 15 4 3.31.69 3.31.69 6 1l-4 2 3 2-4 1 2 2h3c.16 1.15.16 1.15 1 7l-5-2c-.14 1.26-.29 2.52-.44 3.81C699 513 699 513 698 516l-3 1c.97.14 1.94.29 2.94.44C701 518 701 518 702 519v-2l3-1v3c.33-.5.33-.5 2-3-.16-.5-.16-.5-1-3h2l-1-5c2.85 0 5.22.44 8 1h3l4 2 3-5c-5.75-3.58-11.63-5.83-18-8 3-1 3-1 6-.06 7 1.86 13.42 1.76 20.31-.5 4.37-1.34 6.41-1.76 10.69-.44.16.17.16.17 1 1 2.02.11 4.04.19 6.06.25 8.79.56 18.94 2.32 26.33 7.39 3.92 2.04 7.42 1.76 11.8 1.74 1.6 0 3.2.01 4.85.02.66-.07.66-.07 3.96-.4 2.13-3.19 2.5-5.27 3-9 5.45 1.11 8.86 2.3 13 6 3.18 2.09 5.24 3.06 9 4-2.43 4.87-4.95 7.38-9 11l-3-1c.33-.5.33-.5 2-3l-8-3c-.47 1.11-.95 2.23-1.44 3.38-.81 1.89-1.64 3.78-2.56 5.62l4-2 3 1-1 2h-3c-.14.46-.14.46-.88 2.78-1.36 3.91-2.6 4.71-6.12 6.78-.89.54-1.77 1.08-2.69 1.63-7.82 4.27-15.47 7.8-24 10.43-.95.3-1.91.6-2.9.91-35.65 10.91-76.82 9.18-110.1-8.47-6.41-3.6-12.42-7.64-18.31-12.06l1-3-2-2 7 1v-1c1.4-.27 2.8-.54 4.25-.81C654 517 654 517 658 514c4.38 1.19 4.38 1.19 9 3 3.34 1.13 6.57 2.14 10 3 2-3 2-3 2-7l2.88-.88c.51-.18.51-.18 3.12-1.12 1.38-3.12 1.38-3.12 2-6h-2v-2h2v-2h-6v2h-2l-2 10h-1c-.12-1.42-.25-2.85-.38-4.31C675 504 675 504 673 501c-.39-1.99-.73-3.99-1-6 .78-.04 1.56-.07 2.37-.11 1.01-.07 2.02-.13 3.07-.2 1.01-.06 2.02-.12 3.06-.18.82-.17 1.65-.34 2.5-.51 1-3 1-3 0-6M223.727 922.04c.48.1.48.1 2.9.59.48.08.48.08 2.91.53 2.46.84 2.46.84 4.46 3.84 4.72.99 7.84 1.51 12.32-.44 5.22-2.21 10.1-2.66 15.68-1.56 4.11 4.92 3.44 11.9 3.6 18.09.06.48.06.48.4 2.91l3 1c.64 2.84.89 5.64 1.18 8.53.14.41.14.41.82 2.47 2.47.64 2.47.64 5 1 1.69 3.31 1.69 3.31 3 7l2 4c-.49-.33-.49-.33-3-2-2.27 3.09-3.05 4.42-2.68 8.31.22.89.45 1.78.68 2.69h3l1-8h1c2.04 14.6.89 36.14-7 49-1.97.73-3.98 1.4-6 2-3.31 3.39-5.53 6.48-7 11-13.84-1.68-27.37-17.53-35.75-27.69-5.53-7.25-9.52-15.01-13.25-23.31-.52-1.11-1.04-2.23-1.58-3.37-4.55-11.63-5.78-24.48-5.79-36.88 0-.96 0-1.92-.01-2.9.04-2.29.2-4.57.38-6.85l2-1c2 3 2 3 3 6h3v-2l4-1c-.08-1.42-.16-2.85-.25-4.31.09-1.55.17-3.1.25-4.69 4-3 4-3 6.73-2.96"/><path fill="#f8e7c5" d="M682 759c4.96 1.24 7.15 3.68 11 7 4.34 2.58 7.33 3.34 12.35 3.15.59-.01.59-.01 3.58-.08 2.47-.09 4.94-.18 7.41-.28 1.18-.02 2.36-.05 3.57-.08l3.25-.12c3.57.52 4.49 1.76 6.84 4.41 4.08 2.04 6.11 2.23 10.56 2.5 8.89 1.04 15.51 4.82 23.13 9.19 6.73 3.61 12 4.66 19.62 4.37l4.24-.09c1.14-.32 2.28-.64 3.45-.97 1.48-3.57 1.48-3.57 2-7l2 2c-.38 3.12-.38 3.12-1 6l2-4 3-1c1.12-2.44 1.12-2.44 2-5l1-2c1.17 1.99 2.34 3.97 3.52 5.96C807 785 807 785 811 788c-1.31 3.94-2.86 4.36-6.44 6.38-.99.56-1.97 1.12-2.99 1.71-7.99 4.28-15.7 7.88-24.38 10.53-.97.3-1.94.6-2.93.91-33.88 10.38-77.42 12.91-110.26-2.53-1.87-.73-3.75-1.46-5.62-2.19C642.1 796.05 629.1 785.57 617 773c4-2 4-2 6.5-2.94C626 769 626 769 630 766c10.49.79 19.33 6.76 26.27 14.23 2.4 2.45 4.06 3.7 7.51 4.07 1.04 0 2.08.01 3.16.01.52.01.52.01 3.15.05C673 784 673 784 677 781c2.73.03 2.73.03 5.62.5 2.92.47 2.92.47 5.38.5 2.86-4.29 1.95-8.16 1-13-1.76-3.78-4.34-6.79-7-10m65 20-2 2-4-1-3 3c.33.5.33.5 2 3l-3 1v4c3.38.25 3.38.25 7 0l2-4 4-1c.75-3.06.75-3.06 1-6z"/><path fill="#f5dfb7" d="M674 976c2.94.24 2.94.24 6.56.88l3.63.61c.93.17 1.86.34 2.81.51-3 3-6.61 3.26-10.66 4.22-.77.26-1.55.51-2.34.78v2c-5.32 5.21-10.78 8.77-17.36 12.23-2.95 1.98-4.14 3.58-5.64 6.77-.44 3.19-.44 3.19 0 6 5.61 2.81 10.82 2.8 17 2 3.06-2.44 3.06-2.44 5-5l4-1c.16.33.16.33 1 2-1.31 1.35-2.65 2.69-4 4v2l4-2c.66-.16.66-.16 4-1l1-4 7 1-1 3c1.94 2.12 1.94 2.12 4 4v1h-5v3l5 1v-2c3.31-.19 3.31-.19 7 0l3 3c.5.16.5.16 3 1l3 3v-2l-2-2 3-2 2-3 1 3c-.16.33-.16.33-1 2h4l-1-3c1.13.06 2.27.12 3.44.19 1.17-.06 2.35-.13 3.56-.19l1-3c3.57-.34 3.57-.34 8.12-.38 7.22-.27 10.61-.84 15.88-5.62h4l1 3c5.6 2.88 11.87 2.18 18 2-4.21 4.21-9.41 6.6-15.25 7.5-.45.08-.45.08-2.75.5l-1 2-2-1v2h2c-.31 2.44-.31 2.44-1 5l-3 1-1 4c2.39-.12 2.39-.12 5-1 1.14-2.72 1.14-2.72 1.81-6.06.24-1.11.47-2.21.71-3.35.16-.85.32-1.71.48-2.59l4 2-1 1v5l4 1 1 1h1v5c-4.05 1.35-6.91.88-11 0v2h5c2.81 2 2.81 2 5 4l-1 1 3 1c-25.82 12.91-64.08 6.73-90.48-1.8-26.53-9.22-26.53-9.22-30.52-17.2 2.59-2.59 5.01-4.89 8-7h4l-3-3-3 3c-3.5-.31-3.5-.31-7-1h-10v-2h-4c-2.75-1.62-2.75-1.62-5-4-.31-3.25-.31-3.25 0-6h3l3-4-2-1v-2l-7-1v-1l12-2v2h3v2c2.94-.38 2.94-.38 6-1l1-2 3 1v3l2-1c-2-4-2-4-4-5v-2h-2v-4c6.77-3.39 14.23-4.22 21.69-4.66 3.27-.48 5.01-2.04 7.31-4.34l3-1z"/><path fill="#a73c1e" d="M794.25 834.668c16.72 5.94 32.56 17.64 44.75 30.33v2l4 2c.71 1.65 1.38 3.32 2 5h2c1.86 2.68 3.57 5.34 5.25 8.13.5.82.99 1.64 1.5 2.49 14.65 24.75 20.4 54.32 14.22 82.62-3.78 14.67-9.38 28.85-18.97 40.76h-1c-.1-1.61-.21-3.22-.31-4.87-.51-5.71-1.88-10.7-3.69-16.13 4-1 4-1 6-1-.54-.62-1.07-1.24-1.63-1.87-2.03-4.64-.61-8.43.63-13.13 3.74-14.6 5.51-28.96 3-44l-2 3c-.67-4.47-1.11-7.57 0-12-7.37-27.6-27.18-48.5-51-63-12.59-7-12.59-7-18-7-1.67-.3-3.34-.63-5-1l1-2c-.85-.26-1.71-.53-2.59-.8-.55-.18-.55-.18-3.35-1.07-1.1-.35-2.2-.7-3.34-1.06-2.72-1.07-2.72-1.07-3.72-3.07l4.3-1.06c1.86-.46 3.72-.92 5.57-1.38.94-.23 1.88-.46 2.84-.69 11.37-2.82 11.37-2.82 17.54-1.2"/><path fill="#f5dfb7" d="M804 1004v1l-8 2 3 3v2l3 1c-.03.47-.03.47-.19 2.88.06 1.03.13 2.06.19 3.12 2.71 1.77 4.71 3 8 3v2c-4 3-4 3-7 3v2c-3.03 2.4-4.41 3.06-8.31 2.69-.89-.23-1.78-.46-2.69-.69v-3h4v-2h-2v-2c-2.44.19-2.44.19-5 1-.81 2.56-.81 2.56-1 5h2v3c-2.67 1.33-5.33 2.67-8 4l-2 4c-5.23.08-8.23-.5-12.62-3.38-.79-.86-1.57-1.73-2.38-2.62l1-3h-4v-2h2v-2l4-1v-3c3-1.19 3-1.19 6-2l-3-2c2-1 2-1 7-1l1-3c1.03-.43 2.06-.87 3.12-1.31.48-.28.48-.28 2.88-1.69-.32-3.11-.32-3.11-1-6 6.78-1.9 12.89-3.41 20-3"/><path fill="#f5dfb7" d="m743 982-4 2h3l-1 3 3 4-1 1h8l-1 2a108 108 0 0 1-6.94 1.5c-6.84 1.28-6.84 1.28-9.06 3.5-.95.23-1.9.45-2.88.69-4.3 1.81-5.15 4.17-7.12 8.31-.37.93-.74 1.86-1.12 2.81C722 1013 722 1013 720 1015v-3c-.52-.06-.52-.06-3.12-.38-3.56-.57-6.6-1.14-9.88-2.62l-1-4h3l-3-3v-2l-7-1c0-2.38 0-2.38 1-5 4.06-1.31 4.06-1.31 8-2v-1l8.88-1.5c.84-.14 1.68-.29 2.55-.43 6.34-1.07 6.34-1.07 8.57-1.07v-2h2l2-4c8.08-1.46 8.08-1.46 11 0"/><path fill="#c7833f" d="M766 951c1.12 4.47 1 8.41 1 13 .16.66.16.66 1 4-.85.17-1.69.34-2.56.52-5.3 1.13-9.85 2.18-14.69 4.67-4.7 2.27-7.6 2.13-12.75 1.81v2c-3.69.62-3.69.62-8 0-4.27-5.16-5.63-11.42-6-18h-2v-3c4 2 4 2 7 5l3-2 3 2 1-2c3.16.02 3.16.02 7.06.38 1.29.11 2.58.22 3.91.33.5.05.5.05 3.03.29l-1-2 9-2v-2c2.64-1.07 5.31-2.07 8-3"/><path fill="#2f1306" d="M668 831c.77.15 1.54.29 2.34.44 3.53.67 7.06 1.33 10.6 2 .6.11.6.11 3.67.69 1.19.23 2.38.45 3.6.68.55.1.55.1 3.29.62 10.4 1.7 20.68 1.81 31.19 1.82.87 0 1.74 0 2.63.01 15.37 0 29.95-1.27 45.03-4.35 3.74-.73 6.87-1.11 10.65-.91l-2 2c.16.33.16.33 1 2l-15 4 5.94 1.88c2.04.64 4.07 1.34 6.06 2.12.16.33.16.33 1 2l-3.94-.88c-.83-.17-1.66-.35-2.52-.54-2.22-.51-4.42-1.13-6.6-1.77-4.11-.91-7.75-.71-11.93-.37-9.12.63-18.2.71-27.34.69-2.73-.01-5.47 0-8.2.01-9.16 0-18.26-.19-27.39-.97-4.16-.23-7.98.18-12.08.83v-2l3-1c-2.8-.83-2.8-.83-17-5l1-2 2 1z"/><path fill="#c7833f" d="M654 968c3.68 1.2 6.96 2.57 10 5 .25 3.25.25 3.25-1 6-2.61 1.31-4.97 1.4-7.88 1.75-10.18 1.52-17.82 5.27-26.12 11.25-3.44.81-3.44.81-6 1v-3c1.62-1.07 3.31-2.05 5-3 2.71-1.95 5.35-3.98 8-6-3.25 1.05-5.16 2.14-7.75 4.44-3.97 3.13-7.34 4.4-12.25 5.56-3.56-.81-3.56-.81-6-2 1.36-4.09 3.3-4.9 7-7 3.38-.75 3.38-.75 6-1l-1-4 3 1c.8-.74 1.61-1.49 2.44-2.25 4.22-3.26 7.7-4.02 12.85-5.07 11.57-2.89 11.57-2.89 13.71-2.68"/><path fill="#f5dfb7" d="M814 991c2.7 2.63 5.17 5.22 7.5 8.19 2.48 2.79 3.97 3.8 7.5 4.81-2.24 4.48-4.83 7.1-8.38 10.62-.57.58-.57.58-3.46 3.48-3.16 2.9-3.16 2.9-7.16 4.9-3.75-.94-6.02-1.6-9-4v-6c-2.46-2.93-4.82-4.88-8-7 1.55-.25 3.09-.5 4.69-.75 4.4-.9 7.28-1.75 10.31-5.25.7-2.32 1.37-4.66 2-7h3z"/><path fill="#f8e7c5" d="M701 998c1.05.12 2.1.25 3.19.38.93.2 1.85.41 2.81.62.16.66.16.66 1 4l2 2-3 1 2 5-5 1v2c-2.67-.67-5.33-1.33-8-2l-1 4h4l-1 3-5-1v2h-5l-1-2 1-2 4-1c-1-2-1-2-5-4l-1-3h-3l-1 3c-2.92 1.95-4.63 2.45-8 3l-1-3 3-4-2-1c5.13-4.04 9.74-6.17 16-8 1.26-.43 2.52-.87 3.81-1.31C697 996 697 996 701 998"/><path fill="#f5dfb7" d="M786 1007v7c-2.5 1.12-2.5 1.12-5 2v2c-3.44 2.29-4.99 2.18-9 2l3 2-2 2h-5v3l-4 1v2h-2v3l-3-1 1-1-3-1c-.37-2.33-.71-4.66-1-7l-2-1c.06.85.12 1.69.19 2.56-.23 4.14-1.11 6.86-3.19 10.44h-5l1-6h3l1-4h-2v-2l2-1v-1c.76-.11 1.52-.22 2.3-.33.99-.16 1.99-.32 3.01-.48.99-.15 1.97-.3 2.99-.46 2.7-.73 2.7-.73 5.7-3.73l3-2 4-3c1.83-.97 3.69-1.88 5.56-2.75.95-.45 1.9-.9 2.88-1.36 2.56-.89 2.56-.89 5.56.11"/><path fill="#c7833f" d="m692 947 3 1q.06 3 0 6l2 1-1 3 2 1c.68 1.66 1.35 3.33 2 5l2 2v5c-4-2-4-2-8-5l4 7c-4.27 2.03-5.75 2.08-10.38.62-1.19-.53-2.39-1.07-3.62-1.62l-1 2c-3.1-1.21-6.01-2.51-9-4v-3l-1.12-3.06L672 961l2-2 3 2v3h4v-2h5l1 1 1-4h2c-.14-.7-.29-1.4-.44-2.12-.57-2.96-1.08-5.91-1.56-8.88l3 1z"/><path fill="#2f1306" d="M675 843v2c-4.19 2.33-8.4 4.18-12.88 5.88-5.44 2.15-10.23 4.91-15.12 8.12-1.07.7-2.14 1.4-3.25 2.12-12.26 8.34-27.89 20.29-32.75 34.88h-2c-.73 2.04-1.44 4.08-2.08 6.15-1.05 3.26-2.25 6.46-3.48 9.66-.21.54-.21.54-1.26 3.27C601 918 601 918 599 922c-.36 3-.7 6-1 9-.16.33-.16.33-1 2-.23 3.55-.42 7.08-.56 10.62-.05 1-.09 1.99-.13 3.01-.11 2.46-.21 4.91-.31 7.37l-2-1c-2.46-26.35 6.37-51.79 23-72 .71-.86 1.42-1.73 2.15-2.62C630.67 865.02 655.93 843 675 843"/><path fill="#f5dfb7" d="M846.75 953.313c.74.56 1.49 1.11 2.25 1.69-.25 4.43-.25 4.43-1 9l1 3c-.82 3.75-1.79 7.36-3 11-5.46-1.82-7.62-7.34-10.37-12.13-1.63-3.87-1.63-3.87-1.76-6.75 1.13-2.12 1.13-2.12 4-3.31.52-.13.52-.13 3.13-.81 3-2 3-2 5.75-1.69"/><path fill="#c7833f" d="M772 945h2c-.15.33-.15.33-.94 2-1.49 4.21-2.06 8.53-2.06 13l2 1q.21 1.11.42 2.25c1.48 7.02 7.59 12.91 12.58 17.75v2c4 2 4 2 7 2v2h2c-.81 3.44-.81 3.44-2 7-.5.16-.5.16-3 1l-2-1v-5c-2.14-3.38-4.87-5.79-7.88-8.38-6.93-6-11.66-11.41-13.12-20.62.08-6.22.95-10.21 5-15"/><path fill="#c7833f" d="M759 975c6 6.35 6 6.35 6 9 .7.23 1.4.45 2.12.69 4.1 1.87 6.17 4.78 8.88 8.31v2c-17.86 4.59-17.86 4.59-26 4 3.39-1.69 6.76-3.18 10.25-4.62 1.08-.45 2.16-.9 3.27-1.36.82-.33 1.64-.67 2.48-1.02-.85-.99-1.69-1.98-2.56-3-.54-.63-1.08-1.27-1.64-1.92a301 301 0 0 0-3.76-4.26C753 977.21 753 977.21 753 975c2-1 2-1 6 0"/><path fill="#f5dfb7" d="M751 980c1.82 1.74 1.82 1.74 3.56 3.88 2.08 2.51 4.12 4.8 6.44 7.12-6.38 2.32-12.32 2.2-19 2v-3l-2-4 1-1-3-1 4-3v-1c3.68-.92 5.16-.96 9 0"/><path fill="#f5dfb7" d="m600 958 1 4c4.31 1.19 4.31 1.19 9 2 4 1 4 1 7 2-2.14 4.03-4.48 6.51-8.06 9.31-.88.7-1.76 1.4-2.66 2.12C604 979 604 979 602 979c-.36-1.64-.71-3.29-1.06-4.94-.2-.91-.4-1.83-.6-2.77-.06-.38-.06-.38-.34-2.29l1-1a86 86 0 0 0-.44-5.06c-.18-1.63-.37-3.26-.56-4.94"/><path fill="#f8e7c5" d="m721 1009 7 7h-5l-1 2c-4 1-4 1-7 0v2l2 1-5 1v-3l-4 2 2 2-1 2-3-1v-2l-4-1-2-3c1.49-.16 1.49-.16 9-1v-7c10.17 1.17 10.17 1.17 12 3z"/><path fill="#f5dfb7" d="M610 994c3.81-.19 3.81-.19 8 0l3 3c4.19.69 4.19.69 8 1-.33.16-.33.16-2 1l2 2v3l-2 2 1 2-5-2 1 3-2 2c-12-15.25-12-15.25-12-17"/><path fill="#2f1306" d="M687 1048c5.94-.19 11.49.15 17.38 1 14.66 1.94 29.36 1.11 44.07.02.59 0 .59 0 3.55-.02.16.33.16.33 1 2-9.75 1.83-19.22 2.35-29.12 2.31-.73 0-.73 0-4.38-.01-10.6-.1-21.22-.47-31.5-3.3z"/><path fill="#2f1306" d="m761 812-1 2c-18.08 4.49-39.49 6.08-58 3l-1-2c.95-.01 1.9-.03 2.88-.04 33.19-.57 33.19-.57 49.37-3.44C757 811 757 811 761 812"/><path fill="#2f1306" d="M781 846c21.42 6.97 42.07 21.95 54.83 40.69.39.76.77 1.53 1.17 2.31-.16.33-.16.33-1 2-1.19-1.33-2.38-2.67-3.56-4-.74-.83-1.48-1.66-2.24-2.51-1.3-1.47-2.59-2.96-3.83-4.48-11.16-13.51-25.84-22.46-41.43-30.01l-3.94-2z"/><path fill="#a73c1e" d="m666 931 2 1c-.17 6.52-.57 10.92-5 16l-3 1 1 6-4-2-1-4c1.64-1.69 3.31-3.35 5-5 .81-2.81.81-2.81 1-5-3 1-3 1-5.5 3.06C654 944 654 944 651 944c2.25-4.49 3.84-5.39 8-8 1.67-1.33 3.34-2.66 5-4z"/><path fill="#f8e7c5" d="m696 860 4 2 4 1v2l-3 2v1l5 1v-2h3l1 9c-3.31 1.19-3.31 1.19-7 2l-3-3c-2.69.31-2.69.31-5 1v-2l-3-1 1-4 9 3-4-1v-4l-4-1 4-1z"/><path fill="#f5dfb7" d="m628 1014 4 2v2c5.75-.88 5.75-.88 8-2 .37.15.37.15 2.25.94 3.15 1.21 5.41 1.44 8.75 1.06l1-3 4 4c-.87.23-1.73.45-2.62.69-4.69 1.82-7.86 4.79-11.38 8.31-.68-.54-1.35-1.09-2.05-1.64-.89-.72-1.78-1.44-2.7-2.17-.88-.71-1.76-1.42-2.67-2.15A358 358 0 0 0 628 1017z"/><path fill="#f5dfb7" d="M763 1032h3c2 4 2 4 3 7 3.56 1.19 3.56 1.19 7 2-6.96 5.22-10.55 5.13-19 4l3-2c-3.09-3.09-3.92-3.45-8-4v-2c3.94-.81 6-1 10 0z"/><path fill="#a73c1e" d="M635 959v2l-4 1-1 4-1 1 2 1v-2c.95-.08 1.9-.16 2.88-.25 1.03-.25 2.06-.5 3.12-.75l2-4 3-1c-.25 1.09-.5 2.19-.75 3.31-.08 1.22-.16 2.44-.25 3.69l4 3c-3.44.62-3.44.62-7 1l-1-2c-2.52 0-5.04.01-7.55.12C627 969 627 969 624 967c-.19-3.62-.19-3.62 0-7 3.73-.57 7.21-1 11-1"/><path fill="#f5dfb7" d="M811 979h1c.12 1.3.25 2.6.38 3.94.2 1.34.41 2.68.62 4.06l2 1c-.38 3.56-.38 3.56-1 7l-1-2-3 1c-1.19 3.56-1.19 3.56-2 7-1.43-2.86-.6-4.93 0-8h-2c-4-7.41-4-7.41-4-9 .46-.14.46-.14 2.81-.88C808 982 808 982 811 979"/><path fill="#2f1306" d="m851 926 2 1c2.68 13.15 1.64 28.15-2 41l-3 2c.14-.83.27-1.65.42-2.5 1.42-9.15 1.99-18.13 2.2-27.38l.12-4.14c.1-3.33.18-6.65.26-9.98"/><path fill="#f5dfb7" d="M641 989v3h2v2l4 1-1 3 2 1-3 1-1-3-2-1-1 3c-2.96 1.48-5.74 1.06-9 1l3-1-4-2c2.05-4.11 4.95-8 10-8"/><path fill="#2f1306" d="m791 1034 4 1c-9.95 7.46-25.39 14.65-38 14 3.27-3.27 4.97-3.49 9.34-4.34 5.11-1.27 9.86-3.53 14.66-5.66.9-.39 1.8-.78 2.73-1.18 6.11-2.66 6.11-2.66 7.27-3.82"/><path fill="#f8e7c5" d="m760 841 2 2-3.19-.06c-3.17.05-5.79.11-8.81 1.06-2 3-2 3-4 7h-3l-2-2-4-1 2-3-5-1v-1c3.02-.34 6.04-.67 9.06-1 .85-.1 1.7-.19 2.57-.29 4.81-.52 9.54-1.01 14.37-.71"/><path fill="#f5dfb7" d="M846 924h2c1.84 10.57 2.04 20.33 1 31h-1v-9l-4-1-3-2v-2h3v-3l4-1c-.12-1.63-.25-3.26-.38-4.94-.03-.46-.03-.46-.21-2.77-.13-.76-.27-1.51-.41-2.29l-2-1z"/><path fill="#f5dfb7" d="M620 931h2l-1 4h2v-2h4v2c.99.16.99.16 6 1l-1 6-2-1-2 2v-2c-1.66-.67-3.33-1.34-5-2l-3-3-4-2 4-1z"/><path fill="#2f1306" d="M835 890h3c6.71 9.24 13 21.42 13 33-2-1-2-1-3.04-3.92-.38-1.27-.76-2.53-1.15-3.83-2.15-6.73-4.93-12.63-8.45-18.74C837 894 837 894 837 892h-2z"/><path fill="#f5dfb7" d="M710 992v1c-1.55.25-3.09.5-4.69.75-4.38.86-7.08 2.02-10.31 5.25v-2c-2.08.79-4.17 1.58-6.25 2.38l-3.52 1.33C682 1002 682 1002 678 1004h-3c8.56-9.2 22.76-12.24 35-12"/><path fill="#f5dfb7" d="M794 1024v2h2v2h-4v3l3 1c-3.73 3.28-7.28 5.43-12 7l-3-2c7.75-4 7.75-4 10-4v-3h-2c.31-2.44.31-2.44 1-5 3-1 3-1 5-1"/><path fill="#f5dfb7" d="m695 1011 9 3v-2l5-1 1 7h-11v-2h-4z"/><path fill="#a73c1e" d="M615 975c2.83 1.42 5.37 3.23 8 5-2.65 2.65-5.55 3.58-9 5-.33.16-.33.16-2 1l-3-6c1.94-1.73 3.95-3.4 6-5"/><path fill="#a73c1e" d="M784 968h2l3 3-1 2-3-1 3 4c-.31 3.75-.31 3.75-1 7-3.25-3.16-6.39-6.28-9-10l1-2 4-1z"/></g></g></svg>