<svg xmlns="http://www.w3.org/2000/svg" width="322" height="215" viewBox="0 0 322 215"><defs><clipPath id="c"><polygon points="1,1 321,1 161.0,214"/></clipPath></defs><g clip-path="url(#c)"><g transform="translate(-1064,-832)"><path fill="#e9b371" d="M1105 856h241l-6 7c-1.44 1.86-2.85 3.73-4.25 5.62-3.07 4.14-6.17 8.24-9.31 12.32-3.73 4.83-7.44 9.68-11.14 14.55-7.46 9.82-14.99 19.58-22.58 29.31-2.91 3.73-5.82 7.46-8.72 11.2-3.51 4.51-7.02 9.03-10.54 13.54-5.68 7.29-11.35 14.6-16.96 21.96-6.22 8.16-12.51 16.26-18.82 24.34-1.66 2.13-3.3 4.27-4.94 6.41-.99 1.28-1.97 2.56-2.99 3.87-.87 1.14-1.74 2.28-2.64 3.45-.7.8-1.39 1.6-2.11 2.43h-2c-1.34-1.59-2.59-3.25-3.81-4.94-3.7-5.04-7.44-10.04-11.25-15l-3.33-4.35c-.58-.76-1.16-1.51-1.76-2.29-3.37-4.41-6.74-8.82-10.1-13.23-.34-.45-.34-.45-2.08-2.74-3.46-4.53-6.89-9.07-10.29-13.64-4.33-5.79-8.78-11.48-13.23-17.18-3.97-5.1-7.87-10.24-11.73-15.43-3.74-4.94-7.55-9.83-11.37-14.71-4.71-6.03-9.3-12.14-13.87-18.28-15.57-20.85-15.57-20.85-23-29.48C1105 858 1105 858 1105 856m156.75 6.06c-5.47 4.29-5.47 4.29-6.75 7.94.25 2.62.25 2.62 2 5 5.49 2.7 7.67 3.32 13.69 1.88 3.5-1.53 6.94-3.07 10.31-4.88l-2-1c-.15-.41-.15-.41-.94-2.5-.35-.83-.7-1.65-1.06-2.5l-3-1-1-3c-4.79-2.35-6.39-2.3-11.25.06M1310 861l-2 7c-.83-.33-.83-.33-5-2 1.02 5.36 1.68 8.58 5 13 2.81.68 2.81.68 6 .88.53.03.53.03 3.19.24C1320 880 1320 880 1323 878c3.24-7.29 3.24-7.29 2-11l-4 4v-9l-4 2-1 4c-3-3-3-3-6-7m-179 1v7c-.76-.68-1.53-1.36-2.31-2.06-.89-.64-1.78-1.28-2.69-1.94l-3 1 4 8-5 1v1c.44.14.44.14 2.69.88 3.31 1.12 3.31 1.12 5.6 2.7 3.42 1.79 5.52 1.61 9.33 1.23 1.13-.09 2.26-.19 3.42-.29C1146 880 1146 880 1149 878v-4h2l1-5-4 2-1-1c.29-2.34.62-4.67 1-7l-4 1c-1.25 2.56-1.25 2.56-2 5l-3-1c-.27-1.01-.54-2.02-.81-3.06-.39-.97-.79-1.94-1.19-2.94-3.12-.38-3.12-.38-6 0m44 11c-.78.83-1.57 1.65-2.38 2.5-2.62 2.5-2.62 2.5-6 3.94-5.72 2.47-9.57 5.63-12.56 11.12C1153 894 1153 894 1153 899h-2c-1.4 2.88-2 4.77-2 8 4.61 4.43 8.44 8 15 8q-.735 1.11-1.5 2.25C1161 920 1161 920 1161 924h4v2c2.91 1.45 4.74 1.3 8 1 3.11-1.16 6.01-2.55 9-4l-1-3c1.98-.16 1.98-.16 12-1-2.02 1.69-4.04 3.39-6.05 5.08C1185 926 1185 926 1183 930l-4 2-1 4c5.68 4.62 10.8 5.51 18 5 3.49-1.02 6.85-2.17 10-4 .16-.5.16-.5 1-3h3c.16-.66.16-.66 1-4h-2c-.08-.74-.16-1.49-.25-2.25-1.19-4.37-3.77-6.13-7.5-8.5-.37-.21-.37-.21-2.25-1.25 2.47-.49 4.95-.98 7.42-1.46 4.33-.9 7.92-2.09 11.83-4.1l2.7-1.38c.68-.35 1.35-.7 2.05-1.06l-1-3-2.44-.12c-.42-.15-.42-.15-2.56-.88-1.06-3.94-1.06-3.94-1.49-6.41-2.09-10.57-8.74-23.65-17.53-30.06-8.18-5.29-15.29-2.02-22.98 3.47m56.31 3.62c-3.31 3.38-3.31 3.38-3.93 6.57.62 2.81.62 2.81 3.62 5.81 6.08 1.61 11.04.61 17-1l1-3h-2c-.67-2-1.33-4-2-6-3-3-3-3-7-5-3 0-3 0-6.69 2.62M1277 882c-2.38 3.2-3.02 5.07-4 9-.85-.31-1.69-.62-2.56-.94-3.44-.06-3.44-.06-5.4 1.36-1.78 1.76-3.42 3.67-5.04 5.58v2l-4 1-2 4c6.38 4.25 12.38 5.48 20 5 4-.88 4-.88 7-2v-2h2v-2h-2c-1.12-2.5-1.12-2.5-2-5 .46.07.46.07 2.78.39 11.29 1.27 11.29 1.27 16.16-1.45 3.06-2.94 3.06-2.94 3.25-5.82-.2-.51-.2-.51-1.19-3.12-.45-1.26-.91-2.52-1.38-3.81C1297 881 1297 881 1294 880c-.16-.5-.16-.5-1-3-6.74-4.5-10.93.38-16 5m11.12 22.88C1286 908 1286 908 1286 910l-3 1c6.23 3.05 6.23 3.05 9.69 2.81C1295 913 1295 913 1299 911v-2h2c-1.07-2.92-1.78-4.78-4-7-4.5-.8-5.58-.42-8.88 2.88M1234 916c-.79.54-1.57 1.09-2.38 1.64-8.19 6-12.34 12.82-15.24 22.48-.46 1.28-.91 2.56-1.38 3.88-.66.16-.66.16-4 1a96 96 0 0 0-4 5l-5 5c-2 3-2 3-2 6h3v2c4 2 4 2 7.24 1.29 1.2-.41 2.4-.81 3.64-1.23 4.95-1.66 8.02-2.22 13.12-1.06 9.24.5 17.67-.83 26-5v-2l4 1v-3c.66-.16.66-.16 4-1 4-4.33 4-4.33 4-7 .67-.16.67-.16 4.06-1 6.25-1.89 8.9-6.49 11.94-12 .16-.5.16-.5 1-3h-2c-.06-1.07-.12-2.14-.19-3.25-.96-4.44-2.15-5.28-5.81-7.75-.16-.33-.16-.33-1-2-.61-.06-.61-.06-3.69-.38-4.7-.68-6.45-2-10.31-4.62-10.19-4.79-16.22-1.45-25 5m4.31 48.31C1236 967 1236 967 1236 970l1 2c4.91 1.64 8.68 1.58 13.44-.5.42-.25.42-.25 2.56-1.5-3.3-5.63-3.3-5.63-6.56-7.38-3.96-1.01-4.94-1.05-8.13 1.69M1207 971c-.75 3.69-.75 3.69-1 7h-2c0 5 0 5 2 7.44 3.59 3.06 7.09 5.91 11 8.56l3-1v2l-2 1v2l4 3c.66-.16.66-.16 4-1 .66-.16.66-.16 4-1 1.25-2.56 1.25-2.56 2-5h-4l-1-2-3 3c.19-2.31.19-2.31 1-5 1.66-1.01 3.33-2.01 5-3 3-3.97 3.01-5.9 2.62-10.94-1.38-5.72-4.05-8.44-8.62-12.06-6.7 0-11.78 3.08-17 7"/><path fill="#9f3519" d="M554 846c4.31 2.16 6.11 4.51 8.95 8.31 2.25 2.95 4.6 5.79 6.99 8.63 6.23 7.44 12.26 15.04 18.25 22.68 4.05 5.17 8.16 10.29 12.31 15.38 4.98 6.11 9.88 12.28 14.74 18.49 5.58 7.1 11.25 14.14 16.91 21.19 6.59 8.21 13.08 16.51 19.58 24.8 4.68 5.97 9.39 11.92 14.15 17.83 4.92 6.14 9.71 12.36 14.46 18.62 3.09 4.05 6.23 8.03 9.47 11.95C702 1028.61 702 1028.61 702 1032H407c2.02-5.04 4.21-8.02 7.62-12.19.55-.67 1.09-1.34 1.65-2.03 1.57-1.93 3.15-3.85 4.73-5.78 5.71-7.06 11.29-14.22 16.86-21.4q5.52-7.11 11.16-14.13c2.45-3.06 4.87-6.14 7.29-9.22.94-1.19 1.87-2.38 2.83-3.61 1.88-2.39 3.75-4.79 5.62-7.19 5.44-6.97 11.02-13.79 16.76-20.51 2.59-3.07 5.05-6.2 7.49-9.39 2.69-3.45 5.47-6.84 8.24-10.24 4.12-5.04 8.18-10.11 12.19-15.25 4.68-5.99 9.5-11.87 14.36-17.73 4.63-5.6 9.12-11.3 13.59-17.03 3.4-4.3 6.9-8.49 10.42-12.68 2.1-2.51 4.15-5.06 6.19-7.62m0 10c-1.99 2.27-3.88 4.56-5.75 6.94-1.18 1.47-2.36 2.95-3.54 4.42-.61.77-1.22 1.54-1.85 2.33-2.96 3.68-5.97 7.3-8.98 10.93-4.27 5.16-8.46 10.36-12.57 15.63a375 375 0 0 1-10.87 13.31c-4.44 5.2-8.63 10.54-12.77 15.98-4.11 5.33-8.39 10.54-12.65 15.75-2.35 2.89-4.7 5.79-7.02 8.71-2.87 3.6-5.77 7.17-8.68 10.73a775 775 0 0 0-15.92 20.19c-2.42 3.11-4.92 6.13-7.46 9.14-4.04 4.8-7.84 9.73-11.56 14.78-3.59 4.77-7.34 9.39-11.09 14.03C421 1022 421 1022 419 1027h272c-1.66-3.32-3.12-5.56-5.44-8.38-6.46-7.95-12.77-16.02-19.06-24.12-12.78-16.45-12.78-16.45-19.12-24.12-3.05-3.7-5.97-7.47-8.82-11.32-3.88-5.22-7.97-10.22-12.16-15.2-8.62-10.28-16.82-20.93-25.02-31.55-3.22-4.13-6.53-8.18-9.86-12.22-2.87-3.51-5.69-7.05-8.52-10.59q-6.39-8.01-12.9-15.93c-4.14-5.06-8.27-10.14-12.21-15.36-.62-.73-1.25-1.46-1.89-2.21zm6-222c4.65 2.33 6.38 4.66 9.56 8.75.53.67 1.06 1.34 1.6 2.03 1.62 2.07 3.23 4.14 4.84 6.22 1.81 2.31 3.62 4.63 5.44 6.94.45.57.45.57 2.71 3.46 3.08 3.9 6.21 7.75 9.35 11.6 5.92 7.26 11.73 14.61 17.5 22 10.38 13.28 10.38 13.28 15.56 19.56 3.15 3.82 6.19 7.7 9.19 11.63 3.83 5.01 7.76 9.93 11.75 14.81 4.77 5.83 9.41 11.74 13.98 17.73 3.77 4.89 7.65 9.71 11.52 14.53 4.71 5.88 9.36 11.81 14 17.74 1.2 1.52 2.39 3.04 3.59 4.56 1.24 1.59 2.48 3.17 3.72 4.75.29.37.29.37 1.74 2.21.56.71 1.12 1.42 1.69 2.16.48.61.97 1.23 1.47 1.87 1.7 2.33 3.31 4.7 4.9 7.1.54.82 1.08 1.63 1.64 2.47.41.62.83 1.24 1.25 1.88-202.91 2.07-202.91 2.07-295 0 2.17-3.7 4.5-6.96 7.25-10.25 2.7-3.26 5.37-6.52 7.94-9.87 3.44-4.47 7.03-8.79 10.62-13.13 4.16-5.02 8.25-10.06 12.19-15.25 4.44-5.84 9.08-11.49 13.76-17.13 3.64-4.41 7.22-8.86 10.74-13.37 4.08-5.24 8.26-10.38 12.5-15.5 5.17-6.25 10.23-12.58 15.22-18.97 3.6-4.57 7.27-9.06 10.94-13.56 3.54-4.35 7.02-8.74 10.46-13.16 4.46-5.69 9.07-11.23 13.76-16.73 2.41-2.83 4.77-5.7 7.12-8.58 5.08-6.24 10.29-12.37 15.5-18.5m0 10c-1.76 1.52-1.76 1.52-3.69 3.81-.71.84-1.42 1.69-2.16 2.55a801 801 0 0 0-7.77 9.67c-2.39 2.98-4.83 5.93-7.27 8.87-5.48 6.6-10.82 13.26-15.99 20.1-3.91 5.18-7.91 10.19-12.3 14.97-2.73 3.04-5.24 6.25-7.77 9.45-2.07 2.61-4.18 5.19-6.3 7.77-7.47 9.12-14.86 18.3-22 27.69-3.37 4.41-6.88 8.57-10.62 12.68-5.26 6.02-10.05 12.45-14.93 18.78-4.37 5.65-8.87 11.2-13.41 16.73C425 810.27 425 810.27 425 813c13.02 1.28 26.03 1.13 39.09 1.11h7.57c6.82 0 13.64 0 20.45-.01 7.14 0 14.28-.01 21.42-.01 13.5 0 27-.01 40.5-.02 15.37-.01 30.75-.01 46.12-.02 31.62-.01 63.23-.03 94.85-.05 0-4.08-1.52-5.08-4.19-8.12-4.23-4.95-8.26-10-12.19-15.19-5.14-6.78-10.39-13.45-15.72-20.08-2.82-3.52-5.62-7.06-8.4-10.61-4.89-6.24-9.83-12.42-14.79-18.61q-3.18-3.975-6.27-8.01c-2.83-3.67-5.81-7.18-8.82-10.69-4.27-5.02-8.27-10.16-12.18-15.47-3.39-4.48-6.95-8.81-10.5-13.16-3.53-4.31-7.01-8.67-10.44-13.06-4.5-5.75-9.08-11.43-13.71-17.08-4.41-5.4-8.62-10.93-12.77-16.54C563 645 563 645 560 644M213 846h2c1.37 1.51 2.67 3.09 3.94 4.69 3.48 4.35 7.01 8.63 10.62 12.87 4.59 5.4 9.04 10.89 13.44 16.44l6 7.5c1.03 1.29 2.06 2.57 3.12 3.9 1.69 2.11 3.38 4.22 5.08 6.33 3.6 4.48 7.13 9.01 10.61 13.58 4.37 5.71 8.95 11.19 13.62 16.66 6.64 7.82 12.86 15.97 19.15 24.07 4.8 6.18 9.67 12.29 14.56 18.39 6.88 8.59 13.63 17.26 20.3 26.01 6.86 9.01 13.91 17.88 21.09 26.65.73.9 1.46 1.8 2.22 2.72.63.77 1.27 1.54 1.92 2.33C362 1030 362 1030 362 1032H66c1.85-4.63 3.37-6.89 6.56-10.56 3.39-3.98 6.65-7.98 9.75-12.19 3.52-4.75 7.19-9.37 10.94-13.94 4.63-5.65 9.14-11.37 13.56-17.19 5.6-7.37 11.33-14.61 17.18-21.79 1.11-1.36 2.21-2.72 3.32-4.08.56-.69 1.13-1.38 1.7-2.09 3.52-4.33 6.99-8.7 10.43-13.1 4.69-6 9.51-11.88 14.37-17.74 3.63-4.39 7.19-8.83 10.69-13.32 4.74-6.07 9.61-12.03 14.52-17.96 3.66-4.43 7.28-8.89 10.86-13.39 3.41-4.26 6.86-8.5 10.32-12.73 3.84-4.71 7.61-9.47 11.31-14.3.49-.53.98-1.07 1.49-1.62m0 10c-2.3 2.63-4.51 5.27-6.69 8-4.15 5.15-8.35 10.24-12.73 15.2-5.92 6.73-11.33 13.78-16.55 21.05-3.49 4.73-7.27 9.23-11.03 13.75-1.5 1.83-3 3.67-4.5 5.5-2.23 2.73-4.47 5.46-6.71 8.18-4.07 4.93-8.04 9.92-11.91 15.01-2.78 3.64-5.58 7.2-8.63 10.62-2.69 3.05-5.12 6.16-7.52 9.43-2.14 2.79-4.4 5.46-6.67 8.14-3.03 3.61-5.91 7.22-8.56 11.12-3.33 4.89-7.07 9.34-10.89 13.86-3.53 4.24-6.87 8.63-10.21 13.02-2.85 3.71-5.81 7.31-8.81 10.9C80 1022 80 1022 78 1027h272c-1.82-4.56-3.18-6.66-6.31-10.25-4.21-4.93-8.21-9.96-12.13-15.13-7.18-9.45-14.42-18.85-22-28-3.64-4.41-7.09-8.96-10.5-13.56-4.34-5.84-8.85-11.5-13.56-17.06-2.78-3.34-5.45-6.75-8.12-10.19-3.71-4.74-7.52-9.3-11.56-13.76-3.13-3.53-5.95-7.3-8.82-11.05-6.12-7.87-12.32-15.64-18.74-23.27-1.95-2.36-3.84-4.74-5.7-7.17-3.86-5.03-7.99-9.82-12.11-14.64-1.89-2.25-3.69-4.57-5.45-6.92zm1150-9c-2.21 3.91-4.35 7.68-7.14 11.2-.57.73-1.14 1.46-1.73 2.21-.3.37-.3.37-1.82 2.28-1.26 1.6-2.52 3.2-3.78 4.81-.61.77-1.22 1.54-1.84 2.34-2.17 2.77-4.28 5.59-6.38 8.41-3.12 4.2-6.32 8.33-9.56 12.44-7.92 10.03-15.69 20.19-23.32 30.44-5.4 7.24-10.97 14.33-16.64 21.37-3.2 4.01-6.27 8.11-9.33 12.23-3.02 4.02-6.11 7.99-9.21 11.96-4.68 5.99-9.33 12.01-13.94 18.06-4.71 6.19-9.5 12.31-14.33 18.4-2.35 3.03-4.63 6.08-6.89 9.17l-2.05 2.78c-1.34 1.83-2.68 3.66-4 5.5-.61.83-1.22 1.66-1.85 2.52-.55.75-1.09 1.49-1.65 2.27-.51.53-1.02 1.06-1.54 1.61h-3c-2.46-2.94-4.72-5.92-7-9-1.51-1.97-3.02-3.94-4.53-5.9-4.93-6.42-9.81-12.87-14.66-19.35-4.43-5.93-8.92-11.81-13.45-17.67-3.06-3.99-6.07-8.02-9.08-12.05-3.23-4.3-6.53-8.55-9.82-12.82-2.32-3.03-4.61-6.08-6.9-9.15-3.15-4.21-6.36-8.37-9.62-12.5-6.77-8.57-13.36-17.28-19.97-25.97-2.96-3.89-5.93-7.77-8.91-11.65-4.33-5.65-8.61-11.34-12.88-17.04-4.71-6.27-9.48-12.51-14.37-18.65-4.81-6.05-4.81-6.05-4.81-8.25 92.02-1.25 183.98-.86 276 0m-265 6 6 8c1.61 2.27 3.22 4.54 4.81 6.81 3.73 5.24 7.62 10.24 11.73 15.17 4.74 5.81 9.22 11.81 13.76 17.78 2.79 3.67 5.59 7.33 8.39 10.99q.81 1.065 1.65 2.16c3.17 4.14 6.35 8.28 9.54 12.4 4.17 5.42 8.27 10.9 12.37 16.38 5.55 7.42 11.18 14.77 16.89 22.07 4.7 6.02 9.3 12.11 13.86 18.24 5.69 7.66 11.49 15.22 17.4 22.71 3.22 4.08 6.41 8.18 9.6 12.29 3.61-3.47 6.73-7.07 9.75-11.06.87-1.15 1.75-2.3 2.64-3.48 2.36-3.13 4.71-6.26 7.05-9.4 5.07-6.78 10.31-13.42 15.56-20.06l5.5-7c2.76-3.51 5.52-7.03 8.29-10.54 5.28-6.71 10.54-13.46 15.74-20.24 2.51-3.27 5.02-6.52 7.53-9.78 3.18-4.13 6.32-8.27 9.44-12.44 6.73-8.99 13.58-17.88 20.62-26.62 4.11-5.11 8.06-10.28 11.86-15.61 3.23-4.43 6.63-8.72 10.02-13.02 2-2.75 2-2.75 3-5.75z"/><path fill="#35180a" d="M1071 838h308c1 4 1 4-.09 6.07-.56.73-1.13 1.45-1.71 2.2-.31.41-.31.41-1.89 2.48-.68.87-1.36 1.73-2.06 2.63-.69.89-1.38 1.78-2.08 2.71-2.05 2.64-4.11 5.28-6.17 7.91l-3.1 3.97c-1.78 2.28-3.57 4.55-5.36 6.82-5.3 6.71-10.48 13.51-15.67 20.31a1785 1785 0 0 1-18.05 23.3c-4.83 6.17-9.56 12.4-14.31 18.62-6.06 7.95-12.18 15.85-18.32 23.73-5.14 6.59-10.23 13.21-15.3 19.86-3.89 5.1-7.82 10.15-11.77 15.2-5.68 7.28-11.24 14.65-16.77 22.05-5.06 6.76-10.16 13.48-15.35 20.14-.32.47-.32.47-1.96 2.85-.67.71-1.35 1.42-2.04 2.15h-5a66.5 66.5 0 0 1-5.69-7.19c-1.06-1.48-2.13-2.97-3.2-4.45-.26-.37-.26-.37-1.6-2.25-2.08-2.9-4.26-5.73-6.45-8.55-2.74-3.54-5.47-7.09-8.18-10.65-5.06-6.64-10.13-13.25-15.32-19.79-4.24-5.37-8.33-10.84-12.37-16.37-6.38-8.71-12.96-17.24-19.62-25.74-2.27-2.9-4.51-5.83-6.76-8.76-3.36-4.38-6.76-8.73-10.19-13.06-4.49-5.7-8.86-11.48-13.2-17.29-4.75-6.35-9.57-12.63-14.42-18.9a7227 7227 0 0 1-18.38-23.96c-2.85-3.74-5.72-7.46-8.62-11.16l-3-3.88c-.99-1.26-1.98-2.52-3-3.81-.66-1.05-1.32-2.11-2-3.19zm7 5c3.57 5.36 6.89 10.29 10.88 15.25 4.72 5.94 9.34 11.95 13.93 18 5.15 6.78 10.33 13.54 15.57 20.25.57.74 1.14 1.47 1.73 2.23l7.77 9.96c3.71 4.78 7.33 9.54 10.62 14.62.83 1.22 1.65 2.44 2.5 3.69h2l1 4 2 1 1 3h2l1 4 2 1 1 3 2.12 2.12c4.3 4.3 8.94 9.05 10.88 14.88l3 3 1 2h2l1 4c1.64 1.7 3.31 3.36 5 5 1.81 2.3 3.58 4.64 5.31 7 1.06 1.43 2.11 2.85 3.17 4.27.56.76 1.13 1.52 1.71 2.31 3.27 4.38 6.61 8.71 9.93 13.04 5.43 7.1 10.74 14.25 15.86 21.57 1.36 1.89 2.77 3.74 4.22 5.56 1.8 2.25 1.8 2.25 2.8 4.25h2l1 3c3.62-2.64 5.99-4.97 8-9v-2l3-1c4-5.37 4-5.37 4-8h2c.33-.83.66-1.65 1-2.5.33-.83.66-1.65 1-2.5h2c1.78-2.64 2.99-4.97 4-8h2l1-4h2l1-4h2c.33-.83.66-1.65 1-2.5.33-.83.66-1.65 1-2.5h2l2-4 3-3c.49-.83.99-1.65 1.5-2.5 1.5-2.5 1.5-2.5 4.5-5.5v-2h2l2-4 2-1c1.34-2.33 2.67-4.66 4-7l3-3c1.86-2.48 3.69-4.99 5.5-7.5 2.71-3.76 5.22-7.22 8.5-10.5 1.48-1.9 2.94-3.82 4.38-5.75.79-1.07 1.58-2.13 2.4-3.23 1.72-2.34 3.42-4.71 5.1-7.08C1313 920 1313 920 1316 917c1.9-2.46 3.77-4.94 5.62-7.44.27-.35.27-.35 1.61-2.14 2.5-3.36 5-6.73 7.49-10.11.4-.53.4-.53 2.4-3.25.71-.96 1.41-1.91 2.14-2.9C1337 889 1337 889 1339 888c1.34-2.33 2.68-4.66 4-7 3.52-4.76 3.52-4.76 6-6 1.34-2.33 2.67-4.66 4-7l3-3c1.85-2.57 3.61-5.19 5.38-7.82C1363 855 1363 855 1365 854l1-3 2-1 1-3c.49-.33.49-.33 3-2v-2z"/><path fill="#ed7233" d="M756 843h293c-2 4-2 4-5 7l-2 3h-2l-1 4h-2l-1 4h-2l-1 4c-1.65 1.69-3.31 3.35-5 5l-2 4c-.49.5-.49.5-3 3l-1 2h-2l-2 4a410 410 0 0 1-5.94 7.94c-5.68 7.42-5.68 7.42-7.81 11C1003 904 1003 904 1001 905l-1 3c-.33.16-.33.16-2 1l-1 3c-.33.16-.33.16-2 1l-1 3-3 3c-1.22 1.32-2.43 2.66-3.62 4-.62.68-1.23 1.36-1.86 2.06C984 927 984 927 983 930l-6 6-1 3-1.75 1.69C972 943 972 943 969.56 946.94c-2.31 3.66-4.53 6.03-7.56 9.06-6.05 8.09-6.05 8.09-8 12h-2l-2 4c-1.18 1.64-2.39 3.25-3.62 4.84-.71.92-1.42 1.84-2.15 2.78-1.49 1.92-2.97 3.84-4.46 5.76-.71.92-1.42 1.83-2.15 2.78-.64.83-1.29 1.66-1.96 2.52C934 993 934 993 932 997h-2l-1 4h-2c-.33.83-.66 1.65-1 2.5-.33.83-.66 1.65-1 2.5h-2l-1 4h-2l-1 4c-1.64 1.69-3.31 3.35-5 5-5.63 6.88-5.63 6.88-7 11l-2 1-1 3-3 1c-2.25-2.68-4.25-5.33-6.25-8.19-1.26-1.76-2.53-3.53-3.8-5.29-.65-.92-1.3-1.83-1.98-2.78-3.09-4.29-6.28-8.52-9.47-12.74-4.96-6.59-9.87-13.22-14.75-19.88-14.83-20.2-14.83-20.2-20.75-26.12-.62-1.11-1.24-2.23-1.88-3.38-2.05-3.5-4.23-5.81-7.12-8.62l-1-3-3-3c-3-4-3-4-3-6h-2l-1-4h-2l-2-4c-.33-.16-.33-.16-2-1-.58-1.03-1.15-2.06-1.75-3.12-1.74-2.99-3.25-5.16-5.5-7.69C809 913 809 913 809 911h-2c-1.02-1.66-2.02-3.32-3-5-.33-.16-.33-.16-2-1-3-4.5-3-4.5-3-7h-2c-1.49-2.19-2.97-4.38-4.4-6.61-1.6-2.39-1.6-2.39-4.48-5.83C786 883 786 883 786 881h-2c-1.69-2.65-3.35-5.32-5-8l-2-1-1-3-3-3c-1.42-1.84-2.81-3.69-4.19-5.56-3.68-4.96-7.47-9.8-11.38-14.58C756 844 756 844 756 843m71.19 3.44c-.79 0-.79 0-4.77.04-19.14.15-38.28.33-57.42.52l2.85 4.29c.26.4.26.4 1.6 2.42 2 2.96 4.16 5.78 6.36 8.6 3.2 4.12 6.38 8.26 9.5 12.44 5.28 7.06 10.64 14.05 16 21.04 3.27 4.27 6.54 8.55 9.81 12.82 2.75 3.61 5.51 7.21 8.27 10.82 6.92 9.03 13.79 18.11 20.6 27.23 4.9 6.56 9.86 13.08 14.82 19.59 5.81 7.62 11.6 15.26 17.33 22.93 1.93 2.58 3.87 5.16 5.81 7.73.99 1.31 1.97 2.62 2.99 3.97.98 1.29 1.95 2.59 2.96 3.92 2.27 3.04 4.45 6.12 6.6 9.24.59.84 1.17 1.68 1.77 2.54 1.14 1.63 2.26 3.27 3.37 4.92 1.55 2.22 1.55 2.22 4.36 5.5 4.85-1.21 5.41-2.36 8.31-6.31.88-1.18 1.75-2.35 2.65-3.56.48-.65.96-1.31 1.46-1.98 2.98-4.05 6-8.07 9.02-12.09.65-.86 1.29-1.73 1.96-2.62 4.47-5.97 9.04-11.85 13.66-17.69 9.59-12.23 18.91-24.68 28.21-37.13 3.36-4.45 6.76-8.87 10.18-13.28 2.32-3.05 4.62-6.11 6.91-9.18 5.47-7.34 11.1-14.52 16.84-21.65 3.22-4.03 6.32-8.14 9.39-12.28 2.94-3.94 5.92-7.83 8.91-11.73 4.55-5.94 9.08-11.9 13.55-17.9 1.27-1.69 2.54-3.37 3.83-5.04 4.12-5.35 4.12-5.35 4.12-7.56-19.23-.21-38.46-.39-57.69-.56-1.46-.02-2.92-.03-4.42-.04-49.91-.43-99.8-.37-149.7.04M1078 843h294c-1 3-1 3-3 4l-1 3-2 1-1 3-2.25 2.19C1360 859 1360 859 1357.5 863c-2.24 3.59-4.49 6.08-7.5 9l-1 3c-1.64 1.69-3.31 3.35-5 5-2.35 2.75-3.85 4.56-5 8-1.66 1.67-3.33 3.34-5 5-2.19 2.73-4.33 5.46-6.44 8.25-.57.76-1.15 1.51-1.74 2.29-2.9 3.83-5.71 7.68-8.32 11.71-2.5 3.75-2.5 3.75-4.83 6.04-3.02 3.07-5.42 6.33-7.92 9.83-4.07 5.64-8.3 11.05-12.75 16.38-1.91 2.38-3.59 4.81-5.25 7.38-2.36 3.54-4.72 6.18-7.75 9.12l-1 3-3 3-1 2h-2l-1 4c-1.31 1.35-2.65 2.69-4 4l-2 4-3 3-1 2h-2c-.33.83-.66 1.65-1 2.5-.33.83-.66 1.65-1 2.5h-2l-1 4h-2l-1 4h-2l-2 4-2 4h-2c-.33.83-.66 1.65-1 2.5-.33.83-.66 1.65-1 2.5h-2l-2 4c-1.5 2.75-1.5 2.75-3 5h-2c-2 4-2 4-3 7a91 91 0 0 1-5 4l-1-3h-2l-2-4-3-3c-1.46-2-2.9-4.03-4.31-6.06-4.54-6.42-9.29-12.63-14.14-18.82-5.27-6.72-10.4-13.54-15.49-20.4-2.59-3.47-5.18-6.87-7.99-10.17C1172 967 1172 967 1172 965h-2l-2-4-2-1c-.56-.99-1.11-1.98-1.69-3-6.78-11.74-6.78-11.74-11.31-14l-1-3-3-3v-2h-2l-1-3-3-3v-2h-2c-1.36-2.03-2.72-4.06-4.04-6.12-3.14-4.61-6.65-8.92-10.11-13.29-2.59-3.26-5.13-6.54-7.66-9.84-3.4-4.44-6.83-8.85-10.27-13.26-6.11-7.84-12.14-15.73-18.08-23.7-3.63-4.85-7.35-9.63-11.07-14.41C1078 844 1078 844 1078 843m9 4c2.1 4.19 4.68 7.73 7.5 11.44.27.35.27.35 1.62 2.14 4.15 5.48 8.33 10.93 12.53 16.36 2.23 2.9 4.42 5.82 6.6 8.75 4.45 5.95 9.02 11.81 13.59 17.67 4.06 5.2 8.03 10.45 11.97 15.75 2.41 3.19 4.89 6.32 7.38 9.45 4.37 5.54 8.59 11.18 12.75 16.88 5.28 7.23 10.75 14.25 16.39 21.21 3.02 3.79 5.87 7.68 8.69 11.63 3 4.13 6.14 8.15 9.27 12.19 2.98 3.88 5.91 7.8 8.83 11.72 3.97 5.31 8.01 10.55 12.2 15.68 1.61 2.04 3.02 4.14 4.43 6.32.74.93 1.49 1.85 2.25 2.81 5.6-1.4 7.4-5.18 10.56-9.69 1.26-1.75 2.52-3.49 3.78-5.24.62-.86 1.24-1.73 1.88-2.62 4.08-5.62 8.46-11.02 12.78-16.45 6.14-7.78 12.24-15.59 18.27-23.45 3.24-4.22 6.52-8.41 9.79-12.61q6.975-8.94 13.74-18.03c2.46-3.26 4.98-6.46 7.51-9.66 3.97-5.03 7.86-10.11 11.69-15.25 4.69-6.29 9.49-12.49 14.36-18.64 10.55-13.4 20.76-27.07 30.89-40.8l2.77-3.74C1363 848 1363 848 1363 847c-92.02-.83-183.98-1.24-276 0"/><path fill="#35180a" d="M1098 853h253c-3.06 5.36-5.89 9.55-9.75 14.25-3.55 4.36-7.04 8.74-10.31 13.31-3.89 5.43-8.01 10.66-12.15 15.9-3.48 4.42-6.91 8.87-10.33 13.34-1.63 2.11-3.25 4.23-4.89 6.34-4.02 5.21-8 10.43-11.93 15.71-5.39 7.22-10.92 14.29-16.58 21.31-3.79 4.75-7.46 9.59-11.13 14.44-3.71 4.86-7.54 9.62-11.43 14.34-5.26 6.39-10.15 12.99-14.95 19.73-3.99 5.6-8.15 11.04-12.55 16.33-3.75-3.61-7-7.39-10.19-11.5-.96-1.24-1.93-2.48-2.92-3.76-.95-1.23-1.91-2.47-2.89-3.74-.42-.53-.42-.53-2.52-3.24-5-6.47-9.91-12.99-14.81-19.54-5.83-7.79-11.75-15.5-17.67-23.22-6.35-8.28-12.69-16.57-18.94-24.94-4.94-6.6-9.98-13.12-15.05-19.62-3.28-4.2-6.52-8.42-9.7-12.69-4.08-5.49-8.3-10.86-12.54-16.23-3.52-4.48-7-9-10.47-13.52-2.12-2.77-4.27-5.51-6.42-8.25C1098 854 1098 854 1098 853m7 3c2.31 4.62 5.32 8.41 8.5 12.44 1.28 1.62 2.55 3.25 3.83 4.88.63.8 1.25 1.6 1.9 2.42 3.17 4.04 6.29 8.12 9.42 12.2 1.58 2.06 3.17 4.12 4.76 6.18 4.5 5.82 8.94 11.68 13.34 17.57 6.1 8.17 12.37 16.21 18.65 24.26 6.4 8.21 12.7 16.49 18.93 24.83 3.68 4.91 7.38 9.79 11.11 14.66.53.7 1.07 1.4 1.62 2.12 2.79 3.64 5.58 7.27 8.37 10.9 5.96 7.77 11.87 15.57 17.57 23.54 4.7-2.35 6.85-5.38 9.88-9.5 1.16-1.55 2.32-3.1 3.49-4.66.6-.8 1.2-1.6 1.81-2.43 2.89-3.84 5.86-7.62 8.82-11.41 4.6-5.89 9.16-11.81 13.69-17.75 4.76-6.24 9.58-12.44 14.44-18.61 5.06-6.42 10.07-12.88 15.08-19.34 1.74-2.24 3.49-4.47 5.23-6.71 7.69-9.86 15.29-19.78 22.86-29.73 3.03-3.99 6.08-7.96 9.14-11.92 3.87-5.02 7.68-10.09 11.45-15.19 2.29-2.98 4.7-5.86 7.11-8.75z"/><path fill="#705c33" d="M1261.75 916.563c.37.24.37.24 2.25 1.44l3.06.94c3.21 1.16 4.73 2.5 6.94 5.06l-2 2c.35 1.13.7 2.27 1.06 3.44.31 1.17.62 2.35.94 3.56-3 3-3 3-7 4-2-2-2-2-2.13-5.13.05-.95.09-1.9.13-2.87-2.5.87-2.5.87-5 2v2h1c1.32 9.59 1.32 9.59 1 14-.33.16-.33.16-2 1-.16-.66-.16-.66-1-4-1.48.16-1.48.16-9 1l1 4c-.33.16-.33.16-2 1v4l-4-1c-3.25 1.94-3.25 1.94-6 4-2.45-7.96-2.45-7.96-.25-13.06.37-.49.37-.49 2.25-2.94h2v-4l6 2 1-4c.87-.81 1.73-1.61 2.63-2.44.78-.85 1.56-1.69 2.37-2.56-.25-2.75-.25-2.75-1-5l1-1-3-1-2 4c-1.18.27-2.35.53-3.56.81-1.14.39-2.27.78-3.44 1.19-.36 2.33-.69 4.66-1 7a402 402 0 0 1-7 6v5l-4 2c1.87-7.75 1.87-7.75 3-10-7.5-1.25-7.5-1.25-12 1 0-5.33 3.04-9.69 6-14 2.18-2.06 4.38-3.77 6.85-5.47 2.15-1.53 2.15-1.53 4.2-3.6 7.12-7.04 14.95-4.77 22.7-.37"/><path fill="#705c33" d="M1193 871c10.5 6.27 15.86 16.65 19.23 28.22.71 3.25 1.32 6.48 1.77 9.78h-9l-1 3c-6.27 1.37-6.27 1.37-9 0l-1-3c-4 1-4 1-6 4h-2l-2-11c-.66.16-.66.16-4 1 1-4 1-4 5-7 4.25.81 4.25.81 8 2l-2-4-2-4-3 1-1-3 4-2 1-4 2-1-2-1c-.33.5-.33.5-2 3l-3 2-3 3-1-2c-3.27.34-4.64.64-7 3h-4v-5l-2-1c17.93-13.77 17.93-13.77 25-12"/><path fill="#35180a" d="M1273 922h2l2 4h2c.16.5.16.5 1 3 .33.16.33.16 2 1-8 12.48-8 12.48-13.62 13.94-1.12.35-2.23.7-3.38 1.06-1.25 2.44-1.25 2.44-2 5l-3 3h-3v3l-4-1v2c-8.32 4.1-15.34 5.66-24.38 3.01-12.02-4.41-12.02-4.41-15.62-8.01.12-3.75.12-3.75 1-7l2 1 4-8 3 1 3-2h5l-3 12h-3v-3c-4 6.75-4 6.75-4 9h3v-2h2v-2c.66-.3.66-.3 4-1.81 1.32-.72 2.64-1.45 4-2.19v-5c3-3.81 3-3.81 6-7l4 4c-.62.74-1.24 1.49-1.88 2.25-4.27 5.53-4.27 5.53-3.81 9.31.52 1.83 1.09 3.64 1.69 5.44l2.88-2.06L1246 952l2 1 1-4 1-4c2.29-.83 2.29-.83 5.06-1.25 1.63-.25 3.26-.5 4.94-.75.16.66.16.66 1 4 .07-4.58.12-8.54-1-13l-2-1c1.75-2.56 1.75-2.56 4-5l4 1v6h6c1.17-3.51.85-5.44 0-9l-2-1z"/><path fill="#35180a" d="M1170 880v9c2.97-1.12 5.33-2.22 8-4l4 1v3l-4 1-1 3-4-1c-4.18 2.09-4.92 3.06-7 7l2 1c1.33 1.67 2.67 3.33 4 5l2 1 1 3h2c.45-.97.91-1.94 1.38-2.94.53-1.01 1.07-2.02 1.62-3.06l4-1c1.8 3.83 2.2 6.78 2 11 .74-.85 1.48-1.69 2.25-2.56.91-.81 1.82-1.61 2.75-2.44l4 1v3l5 1v3l-25-1 1 7c-3.37.84-6.55 1.63-10 2l-3-2c.21-3.97 1.85-6.73 4-10-1.38-.37-2.76-.74-4.19-1.12-4.71-1.58-7.17-3.56-9.81-7.88l1-4-.12-3.38c.17-4.94 1.29-7.89 4.92-11.33 4.09-3.29 5.83-4.29 11.2-4.29m-4 4v2c-.78.31-1.57.62-2.38.94C1161 888 1161 888 1159 891c-.44 1.71-.81 3.45-1.12 5.19L1157 901h3c1-3 1-3 1-8h6l1-9z"/><path fill="#705c33" d="M1131 862c2.81-.44 2.81-.44 6 0 1.75 3.5 1.75 3.5 3 7h2c.29-.8.58-1.61.88-2.44.37-.84.74-1.69 1.12-2.56l4-1-1 9 3-3h2l-1 5h-2c-.12.8-.25 1.61-.38 2.44-.1.42-.1.42-.62 2.56-4.47 2.23-10.09 2.11-15 2-3.5-1.88-3.5-1.88-6-4-2.88-.75-2.88-.75-5-1 3-2 3-2 5-2l-4-8c4 0 4 0 8 3z"/><path fill="#35180a" d="M1288.5 875.25c2.5.75 2.5.75 5.5 2.75v2l4 2c1.93 4.26 3 7.31 3 12-5.12 3.96-8.55 5.68-15 5-1.57-.1-3.13-.21-4.75-.31C1277 898 1277 898 1274 895c-2.31-1-2.31-1-5-1a567 567 0 0 0-6 5l-3-2c4.4-5.02 4.4-5.02 7-7 3.44.06 3.44.06 6 1 .16-1.01.33-2.02.5-3.06 2.02-5.31 8.74-13.32 15-12.69M1280 883l-1 4 3 4h2c.12.5.12.5.75 3 .41.99.83 1.98 1.25 3 2.94.87 2.94.87 6 0 1.88-4 1.88-4 3-8l2 1c-.33-5.37-3.36-8.29-7-12-4.48 0-6.6 2.23-10 5"/><path fill="#35180a" d="M1225 965c5.11 3.91 7.03 7.39 7.95 13.6.08 3.57-.81 5.57-2.95 8.4-2.97 2.54-4.92 2.99-8.81 3.56-5.49-.73-8.2-2.89-12.19-6.56-.89-.76-1.77-1.53-2.69-2.31-1.31-2.69-1.31-2.69-.43-7.25 2.78-5.81 5.44-7.29 11.18-9.75 3.31-.78 4.79-.95 7.94.31m-8.69 3.94c-1.42.68-2.84 1.36-4.31 2.06l2 4a149 149 0 0 1-1 7l1 2c4-2 4-2 5-3l1 7c4.28-1.07 6.67-2.12 10-5 .86-3.72.65-5.86-1.25-9.2-4-5.58-6.09-7.9-12.44-4.86"/><path fill="#705c33" d="m1310 861 3 4 3 3c.27-.8.54-1.61.81-2.44.39-.84.79-1.69 1.19-2.56l3-1v9l5-4c-.66 4.34-2.04 8.07-4 12-3.2 1.07-5.17 1.05-8.5.81-.96-.05-1.92-.11-2.91-.17C1308 879 1308 879 1305 875c-.75-2.98-1.42-5.98-2-9 .83.33.83.33 5 2z"/><path fill="#35180a" d="m1259 911 4 3c-8.57.13-8.57.13-11.5-.75-4.28-.43-7.68 1.92-11.5 3.75h-2l-2 4c-1.24.85-2.47 1.69-3.75 2.56-4.62 3.26-6.62 7.22-9.02 12.24-.41.73-.81 1.45-1.23 2.2h-2l-1 4c-.94 2.03-1.93 4.04-3 6h-1c-.59-5.75 1.43-10.01 4-15 .41-.83.83-1.66 1.25-2.52 5.63-10.4 15.34-16.61 25.63-21.98 4.73-.76 8.76.62 13.12 2.5"/><path fill="#35180a" d="M1192.25 866.625c12.57 6.29 19.36 19.38 23.75 32.38v5c-.16-.66-.16-.66-1-4h-2c-.05-.41-.05-.41-.31-2.44-.23-.85-.46-1.69-.69-2.56-.99-.34-1.98-.66-3-1-1.29-2.51-2.48-5.06-3.63-7.63-3.53-7.29-6.3-11.38-13.37-15.37-5.18.54-9.26 2.96-13.69 5.6-.97.56-1.94 1.13-2.94 1.71-.92.55-1.84 1.1-2.78 1.67-.86.34-1.71.67-2.59 1.02-1.32-.66-2.64-1.33-4-2 1.32-.34 2.64-.66 4-1 .66-.73 1.32-1.45 2-2.19 4.36-4.09 14.03-10.92 20.25-9.19"/><path fill="#35180a" d="M1269.875 860.563c1.03.47 2.06.95 3.12 1.44.33.99.67 1.98 1 3 1.32.66 2.65 1.32 4 2 .33 1.32.67 2.64 1 4 .67.33 1.32.66 2 1-11.2 6.1-11.2 6.1-17 6-4.37-1.69-4.37-1.69-8-4-1-4-1-4 .5-7 3.93-4.71 7.11-7.35 13.38-6.44m-3.88 3.44c-1 3-1 3-1 4l-3-2c-.32.49-.32.49-2 3 .33 1.32.67 2.64 1 4 3.27 1.63 6.41 1.16 10 1 1.32-.66 2.65-1.32 4-2 0-3 0-3-1-6-4-2-4-2-8-2"/><path fill="#705c33" d="M1198.688 921.25c2.82 2.14 5.14 3.93 7.31 6.75.19 3.25.19 3.25-1 6-2.93 1-2.93 1-6 1l-2-2-1 3c-4-1-4-1-7-3-.91-2.38-.91-2.38-1-5 2.58-3.66 6.06-7.18 10.69-6.75"/><path fill="#9f3519" d="m1190 877 1 3 2 1-3 1v5l-4 1v3l4-2 1 4 2-1v6h-9l-3 1-1 4c-2-1-2-1-2.81-3.06-.27-4.24 1.05-7.12 2.81-10.94 2.19-2.38 2.19-2.38 4-4v-2l4-1c1.25-2.56 1.25-2.56 2-5"/><path fill="#705c33" d="m1178 890 2 1-1.12 3.12c-.88 3.88-.88 3.88.18 6.94.94 2.94.94 2.94-.44 6.32-.53.86-1.07 1.73-1.62 2.62l-4-2 1-2-3-1v-2l-4-2c-.94-2.44-.94-2.44-1-5 2.85-2.85 4.26-3.88 8-5l3 1z"/><path fill="#705c33" d="M1204 952c3.38-.12 3.38-.12 7 1 3 2.81 3 2.81 5 6l-1 4c-4.38 1.38-4.38 1.38-9 2l-3-2v-2h-3c.58-4.19 1.28-5.38 4-9"/><path fill="#ed7233" d="m1212 944 3 1c-.35 1.05-.7 2.1-1.06 3.19l.06 3.81c6.12 4.61 12.9 6.3 20.25 8.2.91.27 1.82.53 2.75.8v1c-4.74.06-9.18.12-13.88-.56-3.12-.44-3.12-.44-7.12.56-.13-.48-.13-.48-.81-2.94-.39-1.01-.79-2.02-1.19-3.06l-3-1v-2h-5l-1-2c2.31-2.5 2.31-2.5 5-5z"/><path fill="#705c33" d="M1293.938 901.5c3.06.5 3.06.5 5.44 2.88 1.62 2.62 1.62 2.62 1.62 4.62h-2l-1 3c-2.91 1.66-4.7 2.02-8.06 1.81-2.94-.81-2.94-.81-6.94-3.81h3c.71-1.65 1.38-3.32 2-5 3-3 3-3 5.94-3.5"/><path fill="#35180a" d="M1195 920v3c-.99.78-1.98 1.57-3 2.38-.49.43-.49.43-3 2.62v5l4 1 3 2 1-4c2.5 1.38 2.5 1.38 5 3v2c-3.92 1.96-8.72 1.36-13 1-3.69-1.5-3.69-1.5-6-3 .8-5.9 1.21-8.18 5.44-12.56C1192 920 1192 920 1195 920"/><path fill="#705c33" d="M1247 963c3 2 3 2 4 5l2 2c-4.56 2.67-7.73 3.4-13 3l-3-1-2-4c3.62-5.56 5.62-6.43 12-5"/><path fill="#9f3519" d="m1252 923 4 1c0 4 0 4-2 8l-4 4-1 3c-3.5-.62-3.5-.62-7-2-.62-2.94-.62-2.94 0-6 2.94-2.94 5.34-4.17 9-6z"/><path fill="#35180a" d="M1235 874c4.87 1.22 7.87 2.41 10.81 6.56C1247 883 1247 883 1247 885h2l-1 3c-5.96 1.61-10.92 2.61-17 1-3-3-3-3-3.62-5.81.95-4.85 3.65-6.48 7.62-9.19m-3 6c-1.44 3.06-1.44 3.06-2 6 3.69 2.46 5.63 2.39 10 2l3-3c-.78-3.47-1.47-5.47-4-8-3 0-3 0-7 3"/><path fill="#ed7233" d="M1153 894h1c1.12 6.62 1.12 6.62 0 10l4 3v2c.74.12 1.48.25 2.25.38 2.75.62 2.75.62 6.75 2.62-.33.83-.33.83-2 5l-1-2c-.72-.14-1.44-.29-2.19-.44-6.51-1.3-9.86-4.34-13.81-9.56l2-2 1-4h2z"/><path fill="#705c33" d="M1269 893c4.92 1.23 6.09 2.96 9 7v3c-5.26.72-9.8 1.2-15 0 0-4 0-4 2.44-6.69.84-.76 1.69-1.52 2.56-2.31z"/><path fill="#ed7233" d="M1177 916h21l-1 2c-5.43 1.3-10.4 2.29-16 2l1 3c-9.61 4.66-9.61 4.66-15 4l-2-1v-2l-5-1 2-4c.49.66.99 1.32 1.5 2 3.56 2.85 6.04 2.34 10.5 2 2.01-.29 4.01-.6 6-1l-3-4z"/><path fill="#705c33" d="M1287 878c5.28 1.32 6.85 3.67 10 8l-1 4-1-1-3 8-2-1c-.73-2.31-1.4-4.65-2-7-.33.16-.33.16-2 1l1-4c-.31-2.69-.31-2.69-1-5l-2-1z"/><path fill="#705c33" d="M1266 864c4.47.5 5.69.69 9 4v4c-4.5 2.25-7.04 2.31-12 2l-3-2c.31-2.62.31-2.62 1-5h3l1 3v-3z"/><path fill="#705c33" d="M1236 877c4 1 4 1 5.81 3.31C1243 883 1243 883 1242 887c-3.05 1.52-5.64 1.24-9 1l-3-3c1.44-3.93 2.48-5.66 6-8"/><path fill="#705c33" d="M1223.875 967.938c2.25 2.19 3.69 4.28 5.12 7.06-4.51 1.83-7.26 1.97-12 1-.32.17-.32.17-2 1l-3-6c8.18-4.27 8.18-4.27 11.88-3.06"/><path fill="#35180a" d="m1274 894 3 2v2l3 1c1.19 2.56 1.19 2.56 2 5-11.3 4.8-11.3 4.8-17.12 2.94C1261 905 1261 905 1259 902l1-4 3-1v5c5.05.84 9.88 1.09 15 1q-.705-1.11-1.44-2.25C1275 898 1275 898 1274 894"/><path fill="#9f3519" d="M1282 881h4c2 4.7 2 4.7 2 7l2 2c.4 1.99.74 3.99 1 6l-5 1-.88-3-1.12-3h-2c-1.81-2.19-1.81-2.19-3-5 1.06-2.81 1.06-2.81 3-5"/><path fill="#ed7233" d="M1183 930c1 2 1 2 1 5 5.08 2.74 10.39 2.55 16 2 4.19-1.5 4.19-1.5 7-3-1 3-1 3-3 4.17-7.02 2.8-12.44 4.11-19.81 1.45C1181 938 1181 938 1178 936c.81-2.44.81-2.44 2-5z"/><path fill="#35180a" d="M1194 918c5.44.32 8.74 1.63 13 5 2 3 2 3 2 7h2l-1 4c-2.89 1.52-4.72 2-8 2v-2h3c.32-3.53.48-5.36-1.69-8.25-2.37-1.79-4.55-2.7-7.31-3.75l-1-2-2-1z"/><path fill="#35180a" d="M1211 895c2 3 2 3 2 5h2v4h2c-.55 4.08-.91 4.91-4 8-4.69 2.56-9.77 2.58-15 3 4-3 4-3 6-3v-5l9 1c-.33-1.22-.66-2.43-1-3.69-1-4.31-1-4.31-1-9.31"/><path fill="#35180a" d="M1256 914c2.67-.04 5.33-.04 8 0l1 1c1.24.08 2.47.16 3.75.25 4.87.86 6.32 1.84 9.25 5.75.94 2.69.94 2.69 1 5l-2 2v-2l-2-1v-3c-.7-.1-1.4-.21-2.12-.31-3.27-.78-5.93-2.11-8.88-3.69l-1 2v-3c-2.31-.74-4.65-1.41-7-2z"/><path fill="#ed7233" d="M1217 906c2.62.31 2.62.31 5 1v4c-6.21 3.19-11.77 4.98-18.75 5.56-.98.09-1.97.17-2.98.26-.75.06-1.5.12-2.27.18 3-3 3-3 6.81-3.44 4.55-.61 6.66-1.7 10.19-4.56z"/><path fill="#ed7233" d="M1257 899h3c.08.78.15 1.56.23 2.37.25.87.51 1.74.77 2.63 6.34 3.03 9.94 3.42 16.62 1.19 1.81-.7 3.6-1.42 5.38-2.19v2h-2v2c-8.68 3.26-15.62 2.25-24-1l-3-2c2-4 2-4 3-5"/><path fill="#705c33" d="m1232 938 3 1-2 4c-.12.85-.25 1.69-.38 2.56C1232 948 1232 948 1228 951h-2v2h-2l1 3-4-1-1-3h2c.74-2.31 1.41-4.65 2-7 2 2 2 2 3 4 .27-1.44.54-2.89.81-4.38C1229 940 1229 940 1232 938"/><path fill="#705c33" d="M1217 990h7v5l4-3v2l4 1c-2 4-2 4-4.38 5.31-2.62.69-2.62.69-6.62-.31l-3-2v-2l3-2 1-3h-5z"/><path fill="#ed7233" d="M1204 978c.33.16.33.16 2 1v2l3 1c1.69 1.65 3.35 3.31 5 5l3 2v2h5l-1 3c-6.39 0-10.33-4.58-15-8.56-2-2.44-2-2.44-2-7.44"/><path fill="#9f3519" d="M1217 975c3.44.19 3.44.19 7 1 2.94-.44 2.94-.44 5-1l1 4c-4.05.54-7.91 1-12 1l-2 4h-2c-1-3-1-3 .5-6.25.83-.91 1.65-1.82 2.5-2.75"/><path fill="#705c33" d="m1166 884 2 1c-.25 2.68-.58 5.35-1 8h-6c.06 1.3.12 2.6.19 3.94-.06 1.34-.13 2.68-.19 4.06l-3 1c-1.15-3.45-.81-4.58.19-8 .24-.87.48-1.73.73-2.62C1160 889 1160 889 1164 886h2z"/><path fill="#35180a" d="M1175 914c3.7.09 7.37.24 11.06.44.52.02.52.02 3.17.16 2.59.13 5.18.26 7.77.4v1c-2.21.2-4.42.38-6.62.56-1.23.11-2.46.21-3.73.32-3.41.11-6.33-.19-9.65-.88l3 4v2c-4.11 1.76-7.56 2.21-12 2 4-2 4-2 7-3-.19-.97-.37-1.94-.56-2.94-.15-1.01-.29-2.02-.44-3.06z"/><path fill="#705c33" d="M1230 979c-.19 2.31-.19 2.31-1 5-3.03 2.3-5.26 3.07-9 4l-1-8c3.76-1.25 7.06-1.06 11-1"/></g></g></svg>